<svg width="358" height="314" viewBox="0 0 358 314" fill="none" xmlns="http://www.w3.org/2000/svg">
<g clip-path="url(#clip0_70_17)">
<path d="M356.901 18.616C356.18 19.9087 355.778 20.9583 356.007 20.9484C356.237 20.9383 355.918 21.4751 355.299 22.1411C353.8 23.7545 354.004 26.6941 355.675 27.5587C356.414 27.9412 356.759 28.2756 356.441 28.3017C356.123 28.3266 356.396 29.0782 357.047 29.969C358.478 31.9279 358.297 35.2169 356.509 39.7247C355.783 41.5562 355.368 43.2166 355.587 43.4145C355.806 43.6124 353.518 46.4824 350.501 49.7922C347.484 53.102 343.848 57.1084 342.421 58.6954C340.993 60.2824 339.403 61.5992 338.886 61.6216C338.369 61.6439 337.697 62.1272 337.393 62.6953C337.088 63.2635 335.777 64.322 334.481 65.0476C332.368 66.2295 329.911 69.4052 331.151 69.3515C331.422 69.3398 331.304 69.7711 330.89 70.3101C330.475 70.8491 330.014 72.1698 329.865 73.245C329.462 76.1616 327.957 78.2738 322.372 83.7598C319.591 86.4917 317.319 89.0777 317.322 89.5064C317.33 90.4914 308.149 97.5991 304.933 99.0986C303.605 99.7176 300.094 100.687 297.131 101.254C290.282 102.563 283.851 101.829 275.011 98.7295C271.461 97.4849 268.195 96.4822 267.754 96.5014C267.312 96.5206 264.7 98.7966 261.949 101.559C259.198 104.322 256.707 106.593 256.411 106.606C255.616 106.641 250.79 111.542 250.823 112.282C250.852 112.905 250.162 113.862 244.2 121.472C240.212 126.562 234.419 133.068 233.84 133.106C232.376 133.203 222.31 146.031 222.385 147.706C222.399 148 221.668 149.303 220.763 150.6C219.858 151.898 218.338 154.824 217.385 157.102C215.362 161.939 213.111 164.679 207.461 169.181C203.301 172.495 199.051 177.445 195.6 182.994C194.556 184.673 192.348 188.06 190.694 190.52C187.058 195.927 179.076 209.076 173.464 218.902C171.201 222.864 168.638 226.968 167.767 228.023C166.897 229.077 166.005 230.638 165.786 231.491C165.567 232.344 164.824 233.707 164.137 234.52C163.449 235.333 161.851 237.77 160.586 239.935C159.321 242.1 158.059 243.985 157.783 244.124C157.18 244.426 152.737 250.474 151.155 253.145C150.537 254.189 147.988 257.327 145.49 260.119C142.992 262.91 139.26 267.118 137.198 269.469C135.136 271.82 133.443 273.61 133.436 273.449C133.429 273.287 132.854 273.647 132.158 274.249C117.514 286.929 110.466 291.767 96.9471 298.418C89.2485 302.206 80.1856 305.805 78.3271 305.812C77.8547 305.813 80.284 304.587 83.7255 303.086C93.3031 298.91 97.0356 296.884 96.5226 296.141C96.2654 295.769 96.3267 295.426 96.6584 295.378C96.9903 295.331 98.1012 295.184 99.1272 295.052C101.765 294.713 107.655 290.531 106.438 289.861C105.691 289.449 105.686 288.953 106.415 287.535C107.62 285.19 108.416 284.601 110.521 284.496C111.711 284.436 112.057 284.13 111.632 283.512C111.292 283.019 111.941 283.157 113.076 283.819C115.474 285.22 116.265 285.329 115.448 284.146C115.065 283.591 115.273 283.439 116.06 283.698C117.253 284.091 117.408 283.077 116.38 281.607C115.703 280.639 116.447 279.449 118.177 278.732C118.975 278.401 119.351 277.731 119.082 277.12C118.803 276.49 119.196 275.868 120.07 275.552C120.868 275.263 121.313 274.728 121.06 274.362C120.807 273.995 121.103 273.674 121.717 273.647C122.332 273.622 123.009 273.009 123.222 272.288C123.654 270.825 126.801 266.771 127.53 266.74C128.415 266.701 132.119 262.284 131.634 261.846C131.366 261.604 131.513 261.391 131.96 261.372C133.179 261.319 148.458 244.268 154.71 235.983C160.37 228.483 174.104 208.734 178.293 202.07C184.017 192.966 195.665 177.721 202.171 170.817C208.496 164.106 209.661 162.406 213.327 154.538C216.459 147.815 218.562 144.476 222.288 140.309C224.965 137.314 227.481 134.223 227.878 133.439C228.454 132.303 228.737 132.211 229.273 132.988C229.798 133.748 230.039 133.638 230.366 132.486C230.597 131.674 231.027 130.167 231.321 129.138C231.615 128.108 231.954 125.598 232.074 123.559C232.194 121.521 232.507 119.178 232.77 118.353C233.15 117.159 232.787 117.316 230.981 119.123C229.735 120.372 228.732 121.913 228.752 122.548C228.772 123.182 227.15 124.759 225.147 126.051C221.399 128.469 220.151 130.961 220.349 135.629C220.4 136.823 219.8 138.03 218.796 138.754C216.063 140.725 213.563 143.299 213.497 144.21C213.463 144.684 213.415 145.509 213.392 146.042C213.369 146.575 213.017 146.83 212.613 146.607C211.69 146.099 208.11 149.368 208.682 150.196C208.914 150.532 208.767 150.821 208.361 150.838C207.952 150.855 207.427 151.568 207.193 152.421C206.921 153.417 206.354 153.835 205.61 153.591C204.802 153.324 204.598 153.541 204.936 154.306C205.23 154.971 204.997 155.421 204.344 155.449C203.729 155.474 203.46 155.931 203.715 156.511C203.962 157.069 203.844 157.74 203.454 158.002C203.063 158.264 202.936 159.092 203.172 159.843C203.464 160.774 202.902 161.745 201.406 162.896C200.199 163.824 199.03 165.248 198.807 166.061C198.585 166.873 197.9 167.56 197.286 167.586C196.671 167.614 196.383 167.945 196.645 168.324C196.926 168.732 196.18 168.735 194.813 168.332C193.544 167.957 192.501 167.433 192.495 167.168C192.481 166.375 193.629 164.657 194.146 164.703C194.411 164.725 194.619 164.578 194.61 164.376C194.602 164.172 194.585 163.789 194.573 163.523C194.561 163.257 193.983 163.546 193.288 164.165C192.593 164.784 191.107 165.795 189.985 166.411C188.695 167.119 188.116 167.918 188.41 168.585C188.794 169.453 188.667 169.484 187.694 168.757C186.821 168.104 186.522 168.101 186.55 168.745C186.573 169.225 186.228 169.418 185.786 169.175C184.781 168.622 182.736 170.364 183.349 171.251C183.598 171.611 183.366 171.833 182.834 171.745C182.302 171.655 181.874 172.082 181.883 172.692C181.891 173.302 181.392 173.822 180.774 173.849C180.156 173.877 179.667 174.254 179.686 174.688C179.706 175.123 179.189 176.051 178.539 176.751C177.487 177.883 177.248 177.904 176.366 176.946C175.499 176.004 175.094 176.156 173.155 178.151C171.193 180.17 170.416 180.454 166.441 180.605C162.946 180.737 162.356 180.616 163.79 180.056C165.201 179.505 164.855 179.442 162.316 179.787C160.121 180.085 159.355 179.992 160.052 179.514C160.632 179.116 162.014 178.747 163.122 178.692C164.23 178.639 165.331 178.253 165.567 177.836C166.206 176.71 163.641 177.022 159.653 178.557C157.448 179.406 156.479 180.108 157.067 180.431C157.751 180.808 157.636 181.192 156.643 181.844C155.497 182.596 155.634 182.647 157.505 182.166L159.731 181.593L157.024 183.622C155.535 184.738 153.015 186.149 151.425 186.756C149.483 187.498 147.617 189.108 145.746 191.657C142.941 195.477 139.176 199.379 135.154 202.635C133.941 203.616 133.604 204.147 134.392 203.835C135.368 203.449 135.648 203.55 135.301 204.164C134.762 205.114 135.806 205.346 136.63 204.459C136.903 204.166 137.832 203.788 138.695 203.62C143.363 202.709 133.646 209.056 125.574 212.19C121.722 213.685 121.569 213.691 118.732 212.416C117.136 211.699 115.576 211.358 115.266 211.66C114.955 211.96 114.902 211.823 115.146 211.354C115.391 210.885 117.501 209.659 119.836 208.63C129.973 204.159 137.209 199.452 142.457 193.915C145.909 190.273 147.647 187.84 147.634 186.666C147.623 185.694 147.802 185.307 148.033 185.805C148.263 186.304 149.182 186.67 150.074 186.619C151.535 186.536 151.563 186.457 150.351 185.831C148.659 184.955 148.568 183.488 150.119 182.108C150.779 181.521 151.929 180.017 152.676 178.764C153.423 177.512 153.85 177.124 153.625 177.903C153.273 179.12 153.376 179.177 154.348 178.308C154.97 177.752 155.282 176.849 155.04 176.301C154.769 175.687 155.371 174.978 156.612 174.451C159.432 173.254 165.806 168.583 170.935 163.957C173.324 161.801 176.456 159.09 177.895 157.932C180.643 155.719 191.904 143.802 200.417 134.098C203.181 130.947 207.292 125.383 209.551 121.735C211.811 118.086 213.809 115.235 213.991 115.399C214.173 115.563 213.778 116.599 213.114 117.701C212.204 119.209 212.128 119.904 212.804 120.514C213.48 121.125 213.688 121.004 213.644 120.027C213.613 119.313 213.875 118.888 214.228 119.082C214.582 119.276 216.29 117.839 218.026 115.889C221.144 112.385 221.149 112.368 218.497 114.483L215.813 116.625L216.494 114.13C216.868 112.758 217.142 111.112 217.103 110.473C217.062 109.802 218.136 108.862 219.641 108.251C222.782 106.975 227.544 102.493 228.958 99.4812C229.523 98.279 229.84 96.4221 229.664 95.3548C229.372 93.5871 229.641 93.3433 232.684 92.618C234.522 92.18 236.513 91.3801 237.108 90.8404C237.703 90.3007 239.323 89.4285 240.709 88.902C242.77 88.1192 250.182 81.11 250.132 79.9917C250.124 79.821 249.387 78.2623 248.493 76.5281C244.656 69.0833 247.164 61.4822 254.215 59.1864C257.513 58.1126 264.88 57.6655 268.677 58.3087C271.286 58.7505 271.402 58.6594 276.693 51.993C279.647 48.2727 282.79 44.0968 283.678 42.7131C284.567 41.3293 285.491 40.3755 285.733 40.5934C285.975 40.8112 285.397 41.937 284.449 43.0949L282.727 45.2002L284.707 43.3217C285.796 42.2885 286.653 40.6903 286.612 39.7702C286.571 38.8502 286.865 37.8775 287.266 37.6088C287.667 37.3402 288.013 37.5233 288.035 38.0161C288.06 38.5721 288.621 38.3806 289.513 37.5114C291.401 35.6733 291.468 33.4307 289.589 35.0049C286.787 37.3516 300.193 22.883 306.236 17.0386C314.036 9.49471 318.321 6.44122 325.147 3.56421C338.148 -1.91562 343.424 -1.27006 351.992 6.84884C357.808 12.36 358.913 15.0076 356.901 18.616ZM352.454 25.9089C352.001 25.5218 350.845 25.1314 349.886 25.0414C348.195 24.8824 348.179 24.9404 349.36 26.9667C351.126 29.998 352.961 31.2538 353.705 29.9413C354.331 28.8382 353.771 27.034 352.454 25.9089ZM349.854 19.049C349.442 19.0669 349.969 19.5196 351.025 20.0551C352.081 20.5906 353.282 21.0141 353.694 20.9962C354.105 20.9784 353.578 20.5257 352.523 19.9902C351.467 19.4547 350.266 19.0312 349.854 19.049ZM349.721 21.6667C349.368 21.4724 349.1 21.7825 349.126 22.3558C349.152 22.929 349.446 23.2147 349.78 22.9907C350.114 22.7666 350.381 22.4567 350.374 22.3017C350.366 22.1468 350.073 21.8609 349.721 21.6667ZM343.927 20.7318C342.432 21.2907 340.178 21.5909 338.918 21.3988C337.051 21.1143 336.79 21.2275 337.511 22.0098C338.196 22.7547 339.27 22.7787 342.297 22.1169C344.444 21.6477 346.632 21.2143 347.159 21.1537C347.758 21.0851 347.841 20.7948 347.381 20.3796C346.921 19.9645 345.626 20.0967 343.927 20.7318ZM346.519 28.0284C345.704 27.4193 344.904 27.5368 343.164 28.5216C340.545 30.0031 337.943 29.6239 337.859 27.7487C337.776 25.8957 336.222 24.7637 333.898 24.8644C332.224 24.9369 331.929 24.6862 332.205 23.4233C332.42 22.4378 331.881 21.2621 330.686 20.1154C328.345 17.867 323.865 15.3734 323.286 15.9966C323.044 16.257 323.24 16.4527 323.721 16.4318C324.775 16.3862 330.844 21.9088 330.891 22.956C330.911 23.3867 330.461 23.3495 329.815 22.8671C327.584 21.2005 324.355 24.0009 312.303 38.055C303.817 47.9498 293.589 61.5767 293.649 62.909C293.66 63.1902 292.395 65.0862 290.835 67.1225C285.994 73.4407 287.155 75.9279 297.028 80.3841C303.997 83.5302 308.526 83.8298 311.969 81.3727C316.157 78.3838 320.453 73.229 324.893 65.8658C327.406 61.698 329.96 58.0745 330.569 57.8136C331.177 57.5527 331.657 56.9344 331.635 56.4397C331.581 55.2393 334.429 52.4933 336.455 51.7914C337.349 51.4819 338.279 50.4881 338.522 49.5833C338.764 48.6785 340.938 45.6777 343.351 42.915C347.683 37.9553 347.738 37.8343 347.664 33.3599C347.613 30.2817 347.246 28.5715 346.519 28.0284ZM342.8 13.974C341.01 15.0654 342.636 15.5642 344.776 14.5804C346.256 13.9002 346.361 13.6867 345.314 13.485C344.598 13.3472 343.467 13.5673 342.8 13.974ZM344.56 51.7626C343.942 51.7894 343.451 52.1331 343.468 52.5262C343.485 52.9194 343.997 53.028 344.605 52.7676C345.212 52.5071 345.704 52.1635 345.696 52.004C345.691 51.8443 345.178 51.7358 344.56 51.7626ZM343.157 49.7029C342.012 50.372 341.827 50.7519 342.549 50.9546C343.118 51.1147 343.857 50.7775 344.19 50.205C345.073 48.689 344.974 48.6409 343.157 49.7029ZM340.736 24.9378C340.313 24.7049 339.982 24.8659 340.001 25.2957C340.021 25.7256 340.373 26.0627 340.785 26.0449C341.197 26.027 341.528 25.866 341.52 25.6869C341.514 25.5076 341.159 25.1709 340.736 24.9378ZM338.015 13.2558C337.621 13.039 337.102 13.2082 336.861 13.6319C336.621 14.0557 336.95 14.3796 337.592 14.3518C338.908 14.2947 339.082 13.8435 338.015 13.2558ZM337.187 56.519C335.989 56.5709 335.858 58.4814 337.008 59.1149C337.431 59.3478 338.091 59.3284 338.474 59.0709C339.444 58.4206 338.457 56.4639 337.187 56.519ZM331.883 63.0771C329.936 64.9735 330.726 65.3257 333.119 63.6281C334.236 62.8357 334.704 62.1115 334.192 61.9677C333.693 61.8275 332.654 62.3265 331.883 63.0771ZM325.857 14.4204C322.197 12.7415 321.72 13.5117 325.297 15.3231C327.197 16.2855 329.043 17.5326 329.398 18.0943C329.753 18.6561 330.423 19.0993 330.886 19.0792C332.08 19.0275 328.333 15.5566 325.857 14.4204ZM325.837 4.85118C324.387 5.18488 323.389 5.6275 323.619 5.83503C323.849 6.04245 325.481 5.90131 327.246 5.52102C329.011 5.14073 330.009 4.69801 329.464 4.53718C328.919 4.37636 327.286 4.51792 325.837 4.85118ZM322.393 73.6716C321.929 73.2529 320.072 77.9729 319.605 80.7589C318.914 84.8805 321.797 83.1412 322.822 78.8181C323.294 76.8307 323.082 74.2932 322.393 73.6716ZM311.744 14.7413C310.065 15.6794 308.867 16.6057 309.082 16.7997C309.297 16.9939 310.809 16.4057 312.443 15.4932C314.077 14.5806 316.352 13.7401 317.499 13.6253C319.467 13.4282 319.45 13.406 317.191 13.2261C315.721 13.109 313.621 13.6932 311.744 14.7413ZM306.014 96.1412C304.993 96.3796 304.171 96.8685 304.187 97.2271C304.224 98.0753 304.747 98.027 306.478 97.0157C308.389 95.8989 308.242 95.6208 306.014 96.1412ZM298.085 87.5101C297.407 87.2868 297.112 87.4237 297.393 87.8307C297.663 88.2211 298.201 88.5267 298.588 88.5099C299.666 88.4632 299.405 87.9445 298.085 87.5101ZM295.304 37.2967C294.789 37.5175 293.942 38.4588 293.422 39.3886C292.521 41.0008 292.565 40.9923 294.368 39.2044C296.48 37.1112 296.678 36.7077 295.304 37.2967ZM294.633 87.9653C294.013 88.0062 294.204 88.412 295.147 89.0523C297.111 90.3863 298.303 90.3176 296.795 88.9585C296.15 88.3764 295.177 87.9288 294.633 87.9653ZM289.083 84.4737C287.805 84.5207 287.699 84.3844 288.556 83.7968C289.454 83.1812 289.385 82.9879 288.128 82.6051C287.303 82.3538 286.015 81.6746 285.267 81.0958C284.519 80.5169 283.919 80.3123 283.934 80.6411C283.948 80.9699 283.285 80.6888 282.46 80.0153C280.486 78.4045 278.254 78.9691 278.239 81.0826C278.231 82.4588 278.621 82.7201 280.56 82.6379C281.882 82.5817 284.769 83.5455 287.221 84.8614C290.866 86.817 291.481 86.9653 291.116 85.7999C290.862 84.9918 290.016 84.4399 289.083 84.4737ZM288.082 96.4145C287.353 95.8697 286.839 95.8558 286.546 96.3729C286.09 97.1771 280.884 97.1944 279.435 96.3964C278.983 96.1474 278.62 96.102 278.628 96.2958C278.637 96.4894 278.47 97.1609 278.258 97.7876C277.967 98.6448 278.861 99.1709 281.866 99.9102C287.671 101.339 289.351 101.129 289.255 98.9878C289.212 98.0227 288.684 96.8647 288.082 96.4145ZM285.445 45.4509C285.077 45.4668 284.604 45.9865 284.394 46.6056C284.006 47.7496 284.822 48.1015 285.691 47.1656C286.376 46.4293 286.23 45.4169 285.445 45.4509ZM283.822 56.4486C283.683 57.3809 282.791 59.0488 281.838 60.1551C279.594 62.7627 279.648 64.2168 281.904 61.9355C283.517 60.3043 283.662 60.277 284.05 61.5287C284.279 62.2668 284.378 61.0444 284.269 58.8122C284.161 56.58 283.96 55.5166 283.822 56.4486ZM280.701 95.4352C280.114 95.6968 280.299 95.8639 281.173 95.8615C281.964 95.8593 282.399 95.6658 282.139 95.4312C281.879 95.1968 281.232 95.1987 280.701 95.4352ZM276.732 80.7838C276.494 81.0397 276.496 81.6775 276.735 82.2009C277 82.7793 277.17 82.5967 277.168 81.7354C277.165 80.956 276.971 80.5276 276.732 80.7838ZM276.345 78.7514C275.922 78.5185 275.592 78.6796 275.611 79.1094C275.631 79.5393 275.983 79.8763 276.395 79.8585C276.807 79.8406 277.137 79.6796 277.129 79.5005C277.124 79.3212 276.769 78.9844 276.345 78.7514ZM269.24 69.0766C264.426 63.1877 262.387 61.9789 257.612 62.1858L254.559 62.3181L255.82 64.4818C256.514 65.6719 257.39 66.6322 257.768 66.6158C258.146 66.5994 258.361 67.2115 258.247 67.9759C258.089 69.0299 258.763 69.5666 261.033 70.1975C262.709 70.6629 264.952 72.0746 266.127 73.4025C267.282 74.7077 268.567 75.7609 268.982 75.7429C269.397 75.7251 268.789 74.818 267.631 73.7274C265.112 71.3553 265.045 71.0253 266.962 70.4415C268.057 70.1083 269.088 70.7567 270.961 72.955C272.348 74.5844 273.83 76.2353 274.253 76.6237C275.39 77.6685 271.605 71.971 269.24 69.0766ZM273.001 78.1145C272.382 77.3525 271.634 76.9886 271.339 77.3057C271.044 77.6229 271.196 77.8654 271.677 77.8445C272.158 77.8236 272.572 78.2852 272.598 78.8701C272.624 79.455 272.992 80.1243 273.415 80.3573C274.536 80.9747 274.304 79.7176 273.001 78.1145ZM261.802 75.549C261.215 75.8106 261.401 75.9776 262.275 75.9752C263.066 75.9731 263.5 75.7793 263.241 75.545C262.981 75.3106 262.333 75.3124 261.802 75.549ZM258.282 89.5171C257.776 89.5391 257.522 89.0845 257.718 88.5071C257.914 87.9297 257.753 87.2804 257.36 87.0642C256.968 86.8481 256.779 87.5175 256.942 88.5518C257.105 89.586 257.35 90.4813 257.488 90.5411C257.626 90.6008 258.524 91.0392 259.483 91.5152C261.124 92.3295 261.167 92.2949 260.214 90.9289C259.657 90.1305 258.788 89.4952 258.282 89.5171ZM255.019 104.22C254.233 104.46 253.434 105.114 253.244 105.675C252.965 106.497 253.247 106.519 254.698 105.79C256.834 104.717 257.063 103.598 255.019 104.22ZM248.527 87.7889C246.962 85.01 246.663 85.1416 247.303 88.3291C247.576 89.6971 248.223 90.6925 248.819 90.6666C250.114 90.6105 250.113 90.605 248.527 87.7889ZM243.82 98.2779C242.527 100.754 242.602 102.061 243.927 100.166C244.497 99.3514 244.928 98.168 244.885 97.5359C244.835 96.7992 244.453 97.0656 243.82 98.2779ZM242.6 102.768C242.438 102.775 242.128 103.305 241.91 103.945C241.684 104.613 241.823 104.904 242.236 104.627C242.928 104.163 243.206 102.741 242.6 102.768ZM238.84 109.586C236.333 109.694 232.423 120.699 232.722 126.804C232.952 131.53 234.181 131.644 234.402 126.96C234.585 123.076 236.123 118.137 237.491 117.039C238.009 116.624 239.351 112.039 239.41 110.485C239.43 109.976 239.174 109.571 238.84 109.586ZM235.061 105.45C234.36 104.594 234.081 104.58 233.629 105.377C233.258 106.031 233.352 106.176 233.908 105.803C234.407 105.469 234.771 105.708 234.801 106.39C234.833 107.108 235.484 107.491 236.535 107.409C237.671 107.32 237.847 107.154 237.075 106.896C236.447 106.686 235.54 106.035 235.061 105.45ZM236.4 108.582C235.999 108.851 235.686 109.403 235.704 109.809C235.721 110.215 236.065 110.327 236.466 110.058C236.867 109.79 237.18 109.238 237.162 108.832C237.145 108.426 236.801 108.314 236.4 108.582ZM234.21 93.1484C233.787 92.9155 233.455 93.0568 233.473 93.4628C233.49 93.8687 233.853 94.3915 234.276 94.6245C234.699 94.8574 235.03 94.7162 235.012 94.3101C234.995 93.9042 234.633 93.3814 234.21 93.1484ZM234.591 108.291C234.429 108.298 234.125 108.81 233.915 109.429C233.705 110.049 233.86 110.541 234.258 110.524C234.658 110.507 234.962 109.994 234.935 109.385C234.906 108.776 234.753 108.284 234.591 108.291ZM230.022 115.884C229.638 115.9 229.138 116.592 228.911 117.422C228.684 118.251 228.123 118.723 227.665 118.47C227.207 118.218 227.055 118.335 227.328 118.729C227.601 119.124 226.747 120.712 225.431 122.259C224.115 123.806 223.309 125.22 223.639 125.402C224.235 125.73 228.403 120.633 229.906 117.737C230.877 115.867 230.878 115.847 230.022 115.884ZM228.622 111.323C227.152 111.111 226.383 111.55 225.279 113.23C223.895 115.334 221.818 116.46 222.881 114.529C223.214 113.925 222.892 113.993 221.996 114.718C219.105 117.05 217.349 118.932 217.382 119.663C217.399 120.078 218.545 119.24 219.925 117.8C221.306 116.361 222.429 115.498 222.421 115.883C222.412 116.268 220.983 117.81 219.242 119.309C217.502 120.808 216.075 122.43 216.072 122.915C216.069 123.4 215.687 124.05 215.224 124.36C214.667 124.733 214.573 124.588 214.946 123.932C215.31 123.289 215.223 123.131 214.699 123.482C214.254 123.781 214.101 124.504 214.36 125.09C214.619 125.676 214.457 126.171 214.001 126.191C213.545 126.211 213.194 126.725 213.221 127.334C213.277 128.575 215.195 128.761 215.859 127.589C216.096 127.172 216.833 126.808 217.497 126.779C219.202 126.705 221.347 124.426 221.273 122.767C221.194 121.007 223.085 116.906 224.679 115.376C225.345 114.737 226.179 113.634 226.533 112.926C226.908 112.175 227.564 111.85 228.105 112.149C228.772 112.515 228.538 113.235 227.279 114.697C226.314 115.818 225.037 117.032 224.442 117.395C223.459 117.994 222.224 123.616 223.084 123.579C223.286 123.57 224.396 121.753 225.553 119.541C226.71 117.328 228.314 114.878 229.118 114.095C231.035 112.229 230.933 111.655 228.622 111.323ZM216.01 136.605C214.531 137.855 213.771 138.689 211.957 141.055C211.042 142.25 211.857 141.813 214.255 139.824C216.299 138.128 217.799 136.483 217.59 136.167C217.38 135.852 216.669 136.049 216.01 136.605ZM211.871 120.368C211.713 120.375 211.027 121.319 210.347 122.467L209.112 124.554L210.664 123.078C212.036 121.772 212.677 120.333 211.871 120.368ZM210.651 143.344C210.495 143.352 209.931 143.957 209.397 144.692C208.518 145.903 208.546 145.928 209.693 144.959C210.897 143.941 211.267 143.317 210.651 143.344ZM207.206 127.616C205.048 129.718 203.296 133.126 201.775 138.183C200.567 142.196 200.559 142.487 201.692 140.9C202.39 139.923 203.683 136.935 204.564 134.261C205.445 131.587 206.736 128.844 207.433 128.165C208.13 127.486 208.693 126.765 208.684 126.562C208.675 126.359 208.01 126.833 207.206 127.616ZM208.535 146.393C208.38 146.402 207.816 147.007 207.282 147.742C206.403 148.953 206.43 148.978 207.577 148.008C208.782 146.99 209.152 146.367 208.535 146.393ZM203.647 148.584C200.309 152.318 199.341 154.187 200.777 154.124C201.626 154.088 203.549 151.92 205.553 148.741C208.291 144.397 207.451 144.328 203.647 148.584ZM205.97 149.832C205.569 150.101 205.256 150.653 205.274 151.059C205.291 151.465 205.635 151.577 206.036 151.308C206.437 151.04 206.75 150.488 206.732 150.082C206.715 149.676 206.371 149.563 205.97 149.832ZM202.631 147.389C202.506 147.397 201.298 148.694 199.946 150.278L197.488 153.158L200.183 150.493C202.692 148.012 203.203 147.364 202.631 147.389ZM198.344 138.701C197.66 138.73 197.251 139.437 197.298 140.505C197.341 141.47 196.92 143.485 196.362 144.982C195.747 146.634 195.654 147.691 196.126 147.671C196.941 147.635 198.043 145.048 198.851 141.267C199.115 140.036 199.361 138.944 199.399 138.84C199.436 138.737 198.962 138.674 198.344 138.701ZM194.035 143.057C193.413 143.324 192.971 144.444 193.024 145.622C193.075 146.773 192.829 147.907 192.476 148.143C192.124 148.38 191.684 149.334 191.498 150.263C191.163 151.944 191.167 151.943 192.34 150.128C193.423 148.451 195.027 144.386 195.106 143.116C195.123 142.823 194.643 142.797 194.035 143.057ZM189.724 162.041C186.791 163.922 186.331 164.74 188.594 164.051C189.409 163.803 189.901 163.909 189.686 164.287C189.471 164.665 189.653 164.959 190.089 164.94C190.526 164.921 190.862 164.448 190.837 163.889C190.812 163.33 191.287 162.43 191.892 161.889C193.802 160.183 192.477 160.275 189.724 162.041ZM188.605 149.256C188.039 149.866 188.06 150.483 188.68 151.435C189.438 152.599 189.535 152.494 189.47 150.584C189.416 148.996 189.182 148.636 188.605 149.256ZM188.986 164.988C188.222 165.021 183.488 167.372 183.503 167.711C183.52 168.087 184.352 167.922 187.409 166.94C189.112 166.393 190.293 164.931 188.986 164.988ZM182.18 162.325C181.634 162.347 181.064 163.205 180.912 164.229C180.589 166.408 182.229 166.734 183.269 164.697C184.037 163.193 183.61 162.263 182.18 162.325ZM180.664 167.567C180.485 168.185 178.895 170.197 177.13 172.039C174.91 174.355 174.498 175.057 175.793 174.316C177.815 173.157 182.142 167.384 181.426 166.8C181.186 166.604 180.843 166.95 180.664 167.567ZM177.498 175.099C177.316 175.104 176.974 175.454 176.737 175.871C176.501 176.288 176.665 176.614 177.101 176.595C177.537 176.575 177.879 176.229 177.861 175.823C177.844 175.417 177.679 175.091 177.498 175.099ZM168.593 178.367C165.986 178.925 165.845 179.053 167.448 179.41C168.453 179.633 169.909 179.446 170.683 178.994C172.679 177.827 172.027 177.632 168.593 178.367ZM151.153 183.429C150.323 183.682 149.818 184.046 150.031 184.239C150.454 184.621 152.701 183.817 152.678 183.292C152.672 183.114 151.984 183.176 151.153 183.429ZM112.911 284.381C112.499 284.398 112.178 284.765 112.197 285.195C112.216 285.625 112.56 285.757 112.961 285.488C113.361 285.22 113.683 284.853 113.675 284.674C113.667 284.495 113.323 284.363 112.911 284.381ZM228.627 130.872C228.387 130.349 228.385 129.711 228.624 129.455C228.862 129.199 229.058 129.627 229.061 130.407C229.064 131.268 228.892 131.451 228.627 130.872ZM215.073 118.38C214.672 118.649 214.329 118.517 214.309 118.087C214.29 117.657 214.612 117.291 215.023 117.273C215.435 117.255 215.779 117.387 215.787 117.566C215.793 117.745 215.474 118.111 215.073 118.38ZM114.275 214.073C113.868 214.757 113.578 214.861 113.547 214.333C113.52 213.85 113.825 213.235 114.225 212.966C115.13 212.359 115.141 212.615 114.275 214.073ZM111.341 220.285C107.382 228 103.063 235.57 100.995 238.418C99.8838 239.948 98.9821 241.362 98.991 241.561C99.025 242.324 101.879 242.484 103.022 241.787C104.634 240.805 104.573 241.661 102.889 243.671C102.132 244.575 99.8103 247.405 97.729 249.96C92.3158 256.606 84.5744 263.885 76.9951 269.457C70.533 274.207 57.8409 282.331 56.8127 282.376C56.2477 282.401 55.8004 282.752 55.8184 283.158C55.8366 283.564 55.4908 283.912 55.0501 283.931C54.6093 283.951 52.8821 284.978 51.2119 286.215C49.5417 287.451 46.1944 289.487 43.7736 290.737C37.2497 294.107 22.5195 302.851 18.2656 305.879C16.2209 307.334 13.6065 308.793 12.4558 309.121C7.75268 310.463 12.6224 311.141 27.5638 311.226C40.6985 311.301 45.3235 311.026 56.5587 309.504C63.9108 308.508 70.057 307.811 70.2169 307.955C70.7953 308.477 54.2472 311.298 45.8533 312.108C36.9635 312.966 20.8926 312.743 11.5021 311.63L6.11987 310.992L12.8147 306.487C16.4968 304.01 24.1048 299.01 29.7214 295.377C53.8068 279.796 73.0422 265.828 83.5141 256.315C90.0707 250.359 98.84 238.978 106.397 226.615C112.392 216.808 113.585 214.98 113.571 215.619C113.568 215.802 112.564 217.902 111.341 220.285ZM85.5929 256.65C84.8894 257.074 82.6946 258.973 80.7154 260.869C77.4129 264.034 77.2803 264.293 79.1034 264.019C81.2716 263.692 84.409 262.013 82.7875 262.046C82.2476 262.057 82.0046 261.716 82.2473 261.288C82.4901 260.86 83.2573 260.577 83.9522 260.66C84.8284 260.764 85.1679 260.321 85.0599 259.215C84.9559 258.151 85.2502 257.734 85.942 257.961C86.5585 258.164 86.9582 257.812 86.9259 257.091C86.8842 256.157 86.5788 256.056 85.5929 256.65ZM102.884 291.748C102.564 291.962 101.8 291.854 101.185 291.507C100.312 291.014 100.436 290.858 101.751 290.792C103.484 290.706 103.907 291.063 102.884 291.748ZM72.9779 307.498C72.1037 307.5 71.9184 307.333 72.5054 307.072C73.0367 306.836 73.6839 306.834 73.9437 307.069C74.2036 307.303 73.7689 307.496 72.9779 307.498Z" fill="#181818"/>
<path d="M103.336 290.796C117.473 276.689 146.244 228.304 153.746 206.022C160.311 186.524 166.49 147.697 164.05 141.273C163.344 139.412 164.501 124.789 166.621 108.776C169.617 86.1452 169.631 79.2991 166.681 78.0353C163.739 76.7749 162.014 78.6664 159.003 86.4503C156.868 91.9728 155.696 98.0928 156.401 100.05C157.104 102.008 156.532 106.85 155.128 110.81C153.724 114.77 153.481 120.396 154.588 123.312C157.334 130.544 151.115 152.986 143.85 162.064C140.579 166.151 137.727 172.603 137.513 176.402C136.965 186.098 127.712 199.281 113.627 210.432C102.381 219.335 101.664 219.633 102.383 215.105C102.806 212.445 105.421 207.922 108.194 205.053C112.501 200.596 112.719 198.164 109.686 188.359C105.473 174.74 104.33 174.816 90.8892 189.61C85.4723 195.573 80.1873 199.819 79.1447 199.046C78.102 198.273 77.8708 193.114 78.6313 187.582C79.3916 182.05 79.9055 177.24 79.7736 176.893C78.7972 174.321 73.3608 180.069 65.1293 192.375C47.9238 218.098 45.4944 222.449 47.7801 223.442C49.0163 223.98 53.5763 218.759 57.9134 211.841C62.2506 204.923 67.3986 197.993 69.3534 196.441C73.7157 192.977 75.487 196.899 72.9736 204.457C68.6426 217.483 74.99 215.46 85.7015 200.401C96.0337 185.876 101.53 182.752 105.205 189.317C107.328 193.11 105.882 198.078 98.9729 210.723C94.0242 219.779 89.1167 227.489 88.0673 227.856C87.0181 228.223 86.5468 229.543 87.0202 230.79C87.6037 232.327 89.0971 231.777 91.6588 229.084C94.6618 225.922 95.6934 225.786 96.6931 228.419C98.1282 232.199 92.3134 239.993 84.4307 244.856C81.4857 246.672 74.2333 255.676 68.3138 264.863C49.0359 294.785 8.96956 318.834 3.84096 303.562C2.96247 300.945 3.24021 299.851 4.4597 301.13C6.83234 303.62 33.4147 295.442 39.6723 290.296C42.7812 287.74 42.5266 287.304 36.9678 285.66C26.9302 282.693 23.374 275.147 26.5506 263.557C28.0886 257.945 28.8998 253.51 28.3533 253.701C26.1141 254.484 7.56183 276.684 4.47676 282.272C2.64811 285.584 0.76231 292.809 0.286144 298.327C-0.458923 306.961 0.0686783 308.717 4.06876 310.916C10.9218 314.684 27.7861 315.017 49.6083 311.816C77.7099 307.693 92.0152 302.097 103.338 290.798L103.336 290.796ZM100.337 229.697C100.739 225.246 101.791 223.864 103.7 225.279C105.85 226.873 107.612 226.285 111.504 222.674C117.294 217.3 118.621 218.546 115.27 226.211C113.982 229.157 109.964 232.603 106.34 233.87C100.139 236.039 99.7855 235.793 100.337 229.697ZM61.4826 229.735C67.3944 217.223 64.2554 217.648 56.4797 230.413C52.5287 236.899 51.4059 240.616 53.6257 239.863C55.6381 239.179 59.174 234.622 61.4826 229.735ZM135.112 170.26C137.948 162.259 138.254 153.59 135.739 152.497C134.859 152.115 132.565 153.409 130.642 155.372C122.755 163.423 116.139 157.609 121.799 147.601C125.224 141.544 128.471 124.144 126.933 120.091C124.326 113.224 119.846 123.397 110.341 157.771C107.12 169.423 109.212 175.806 115.528 173.598C118.095 172.7 120.556 172.917 120.997 174.079C121.438 175.241 124.212 176.501 127.16 176.879C131.526 177.439 133.002 176.21 135.112 170.26ZM105.604 129.766C105.962 128.186 105.495 126.563 104.566 126.159C102.299 125.175 98.7973 129.531 99.7783 132.115C100.841 134.914 104.799 133.318 105.604 129.766ZM157.881 71.485C161.352 63.8498 162.797 43.5258 159.957 42.2926C155.366 40.2994 152.271 47.4362 152.054 60.5213C151.773 77.3651 153.624 80.8478 157.881 71.485ZM146.529 64.8285C146.581 62.8152 145.532 60.9621 144.199 60.7102C142.865 60.4583 141.732 61.9001 141.681 63.9127C141.63 65.9257 142.678 67.7791 144.011 68.0309C145.345 68.2828 146.478 66.8411 146.529 64.8285ZM146.42 37.2537C147.022 36.0482 146.941 33.5507 146.24 31.7036C145.304 29.2385 144.52 29.2349 143.294 31.6896C142.375 33.529 142.456 36.0265 143.474 37.2397C144.492 38.4529 145.817 38.4591 146.42 37.2537Z" fill="#181818"/>
<path d="M109.116 282.228C109.442 274.82 110.333 272.315 113.39 270.221C115.514 268.765 119.011 266.105 121.161 264.309C123.31 262.512 126.956 260.578 129.262 260.009C137.01 258.1 144.811 251.88 147.164 245.741C148.417 242.473 151.414 237.837 153.824 235.438C156.234 233.04 160.085 228.506 162.381 225.363C167.559 218.276 169.818 218.891 165.074 226.096C162.82 229.518 162.356 231.432 163.745 231.57C167.116 231.907 166.737 233.653 162.383 237.839C157.437 242.595 157.714 245.731 162.845 243.063C165.434 241.717 166.693 241.777 167.061 243.263C167.595 245.413 160.241 251.576 153.068 254.991C150.904 256.021 148.984 258.015 148.802 259.421C148.337 263.021 152.14 261.751 157.398 256.551C159.809 254.168 162.896 251.946 164.258 251.615C165.621 251.285 167.965 248.869 169.469 246.249C172.744 240.54 175.513 239.748 189.173 240.613C201.201 241.375 205.182 239.724 219.779 227.919L228.68 220.722L221.38 219.178C214.849 217.797 213.332 218.028 206.978 221.372C196.041 227.127 189.702 224.511 195.458 216.618C196.826 214.742 197.745 212.397 197.499 211.408C197.253 210.418 198.541 208.804 200.36 207.822C211.84 201.62 228.738 203.778 237.84 212.607C244.358 218.931 245.952 219.098 263.287 215.278C274.097 212.895 277.512 211.537 279.92 208.661C282.144 206.006 283.817 205.261 286.202 205.865C294.253 207.906 299.604 204.597 307.342 192.792C311.445 186.532 315.369 178.752 316.062 175.503C318.021 166.319 320.445 158.207 322.263 154.745C324.316 150.835 323.792 139.298 321.585 139.829C320.723 140.037 318.604 143.873 316.876 148.354C315.149 152.834 312.822 156.72 311.704 156.989C309.672 157.478 307.578 164.603 308.434 168.118C308.986 170.396 303.635 181.774 303.028 179.607C302.794 178.76 303.46 175.69 304.515 172.782C306.372 167.66 305.731 164.997 302.809 165.7C302.028 165.888 301.32 168.981 301.234 172.574C301.051 180.299 296.659 189.752 291.537 193.449C285.061 198.122 268.374 201.775 259.825 200.39L252.064 199.133L257.757 193.613C260.888 190.577 262.841 187.502 262.097 186.78C261.261 185.97 259.967 186.585 258.716 188.388C256.142 192.098 247.61 193.964 249.352 190.436C251.209 186.675 248.944 186.602 244.665 190.286C241.155 193.309 240.379 193.475 237.339 191.854C234.436 190.307 231.327 190.84 216.097 195.501C201.096 200.091 198.305 200.581 198.564 198.579C198.799 196.763 197.675 196.628 193.833 198.012L188.794 199.826L193.538 195.429C196.147 193.011 199.664 189.804 201.355 188.302C205.095 184.979 204.838 182.716 200.829 183.681C199.204 184.072 197.251 186.095 196.488 188.176C195.725 190.258 192.628 193.525 189.605 195.438C184.934 198.393 183.163 198.768 177.812 197.938C165.008 195.952 151.846 204.254 138.729 222.59C133.932 229.296 129.206 234.033 125.797 235.554C121.865 237.308 118.252 241.477 112.315 251.108C103.723 265.049 103.739 264.992 104.395 279.745C104.984 292.994 108.56 294.874 109.116 282.228ZM207.791 223.681C212.067 219.864 222.083 218.5 218.432 222.232C217.372 223.314 213.671 224.864 210.205 225.676L203.903 227.15L207.791 223.681ZM170.207 222.338C170.006 221.527 173.83 217.206 178.704 212.736C185.721 206.301 188.124 204.876 190.242 205.892C193.699 207.551 193.144 211.808 189.353 212.721C187.736 213.11 184.441 215.379 182.03 217.762C177.44 222.302 170.832 224.859 170.207 222.338ZM99.9644 266.812C98.5504 257.193 96.125 251.781 94.87 255.446C93.789 258.604 97.5534 273.796 99.5779 274.443C100.449 274.722 100.622 271.288 99.9644 266.812ZM103.59 250.542C104.607 245.268 104.506 244.643 102.7 245.078C101.454 245.378 101.054 253.904 102.252 254.636C102.521 254.801 103.123 252.959 103.59 250.542ZM97.3222 245.249C97.854 241.879 97.2766 237.998 95.8024 235.036L93.4249 230.258L92.3664 234.523C91.6981 237.215 92.2584 240.981 93.8862 244.736L96.4645 250.685L97.3222 245.249ZM89.6848 248.211C89.1564 246.08 88.583 245.295 88.4111 246.465C88.239 247.636 88.6712 249.379 89.3718 250.34C90.0724 251.3 90.2133 250.342 89.6848 248.211ZM324.678 173.826C325.876 170.862 326.667 167.673 326.436 166.739C325.758 164.005 322.787 165.551 322.591 168.739C322.492 170.344 322.026 173.115 321.554 174.897C320.117 180.329 322.359 179.561 324.678 173.826ZM296.076 182.102C296.399 181.121 295.913 180.499 294.998 180.719C294.082 180.94 293.505 181.818 293.716 182.67C293.927 183.523 294.413 184.145 294.794 184.053C295.176 183.961 295.752 183.083 296.076 182.102ZM93.5884 225.921C92.8425 225.197 91.9198 224.681 91.5382 224.772C91.1566 224.864 91.0175 225.637 91.2289 226.489C91.4404 227.342 92.3628 227.859 93.279 227.638C94.1952 227.417 94.3344 226.645 93.5884 225.921ZM211.968 185.174C216.316 179.017 216.444 178.41 213.245 179.118C211.29 179.552 209.863 180.603 210.074 181.456C210.285 182.308 209.344 184.813 207.982 187.023C203.779 193.842 206.856 192.414 211.968 185.174ZM187.651 188.496C187.974 187.515 187.489 186.893 186.573 187.113C185.657 187.334 185.08 188.211 185.292 189.064C185.503 189.916 185.988 190.539 186.369 190.447C186.751 190.355 187.327 189.477 187.651 188.496ZM298.865 160.301C299.275 159.057 299.082 157.724 298.436 157.337C296.684 156.289 295.655 158.699 296.973 160.763C297.896 162.21 298.266 162.118 298.865 160.301ZM311.429 151.034C311.865 150.327 312.043 149.028 311.825 148.147C311.584 147.176 310.874 147.443 310.021 148.827C309.247 150.083 309.07 151.382 309.626 151.714C310.182 152.047 310.993 151.74 311.429 151.034ZM331.763 141.596C333.221 139.055 333.905 136.178 333.283 135.203C332.617 134.16 331.172 135.851 329.773 139.31C326.871 146.489 328.127 147.933 331.763 141.596ZM214.06 170.642C213.849 169.79 212.968 169.263 212.103 169.471C211.238 169.679 210.703 170.547 210.914 171.399C211.125 172.252 212.006 172.779 212.871 172.57C213.736 172.362 214.271 171.494 214.06 170.642Z" fill="#181818"/>
<path d="M50.0806 144.38C54.12 137.168 59.7019 127.875 62.4847 123.728C65.2675 119.581 67.1405 115.125 66.6471 113.825C66.1536 112.526 64.182 114.137 62.266 117.407C60.3497 120.676 59.0807 121.855 59.4458 120.027C59.811 118.199 59.7196 114.324 59.2429 111.415C58.766 108.507 59.3411 104.673 60.5207 102.896C63.1283 98.968 66.5341 85.5905 65.523 83.248C65.1198 82.3176 63.6854 84.1757 62.3321 87.3776C60.979 90.5797 57.9053 96.6519 55.5019 100.871C51.6594 107.617 51.1196 107.956 51.03 103.676C50.9701 100.815 48.8673 103.619 45.9293 110.479C42.8392 117.694 41.7693 124.46 43.1272 128.198C44.4863 131.935 43.4353 138.575 40.3781 145.585C37.6579 151.823 35.6675 157.546 35.9551 158.303C37.4064 162.126 43.5107 156.108 50.0806 144.38ZM68.6299 136.453C79.8475 120.359 98.0506 85.1458 96.8233 81.913C94.8344 76.6745 88.9777 82.1075 85.7015 92.2302C81.6917 104.62 67.6918 132.846 60.4773 143.087C57.6785 147.06 56.4428 149.955 57.7312 149.519C59.0212 149.088 63.9241 143.204 68.6299 136.453ZM115.145 95.8643C118.482 86.4513 117.392 83.3015 112.559 88.3894C109.197 91.929 106.489 100.408 107.701 103.6C108.87 106.68 112.733 102.665 115.145 95.8643ZM74.5178 100.933C77.8132 93.7726 77.2817 88.3526 73.4165 89.7042C70.9668 90.5608 67.9847 106.293 70.0981 107.211C70.8003 107.516 72.7887 104.691 74.5178 100.933Z" fill="#181818"/>
</g>
<defs>
<clipPath id="clip0_70_17">
<rect width="358" height="314" fill="white"/>
</clipPath>
</defs>
</svg>
