<svg width="102" height="24" viewBox="0 0 102 24" fill="none" xmlns="http://www.w3.org/2000/svg">
<path d="M46.2718 7.42398C46.1598 7.31198 45.9518 7.15998 45.6478 6.96798C45.3598 6.77598 44.9998 6.59198 44.5678 6.41598C44.1518 6.23998 43.6958 6.08798 43.1998 5.95998C42.7038 5.81598 42.1998 5.74398 41.6878 5.74398C40.7918 5.74398 40.1118 5.91198 39.6478 6.24798C39.1998 6.58398 38.9758 7.05598 38.9758 7.66398C38.9758 8.12798 39.1198 8.49598 39.4078 8.76798C39.6958 9.03998 40.1278 9.27198 40.7038 9.46398C41.2798 9.65598 41.9998 9.86398 42.8638 10.088C43.9838 10.36 44.9518 10.696 45.7678 11.096C46.5998 11.48 47.2318 11.992 47.6638 12.632C48.1118 13.256 48.3358 14.088 48.3358 15.128C48.3358 16.04 48.1678 16.824 47.8318 17.48C47.4958 18.12 47.0318 18.64 46.4398 19.04C45.8478 19.44 45.1758 19.736 44.4238 19.928C43.6718 20.104 42.8718 20.192 42.0238 20.192C41.1758 20.192 40.3278 20.104 39.4798 19.928C38.6318 19.752 37.8158 19.504 37.0318 19.184C36.2478 18.848 35.5278 18.448 34.8718 17.984L36.3358 15.128C36.4798 15.272 36.7358 15.464 37.1038 15.704C37.4718 15.928 37.9198 16.16 38.4478 16.4C38.9758 16.624 39.5518 16.816 40.1758 16.976C40.7998 17.136 41.4318 17.216 42.0718 17.216C42.9678 17.216 43.6478 17.064 44.1118 16.76C44.5758 16.456 44.8078 16.024 44.8078 15.464C44.8078 14.952 44.6238 14.552 44.2558 14.264C43.8878 13.976 43.3758 13.728 42.7198 13.52C42.0638 13.296 41.2878 13.056 40.3918 12.8C39.3198 12.496 38.4238 12.16 37.7038 11.792C36.9838 11.408 36.4478 10.928 36.0958 10.352C35.7438 9.77598 35.5678 9.05598 35.5678 8.19198C35.5678 7.02398 35.8398 6.04798 36.3838 5.26398C36.9438 4.46398 37.6958 3.86398 38.6398 3.46398C39.5838 3.04798 40.6318 2.83998 41.7838 2.83998C42.5838 2.83998 43.3358 2.92798 44.0398 3.10398C44.7598 3.27998 45.4318 3.51198 46.0558 3.79998C46.6798 4.08798 47.2398 4.39998 47.7358 4.73598L46.2718 7.42398Z" fill="#E8E8E8"/>
<path d="M49.6157 16.28C49.6157 15.464 49.8397 14.752 50.2877 14.144C50.7517 13.52 51.3917 13.04 52.2077 12.704C53.0237 12.368 53.9597 12.2 55.0157 12.2C55.5437 12.2 56.0797 12.24 56.6237 12.32C57.1677 12.4 57.6397 12.528 58.0397 12.704V12.032C58.0397 11.232 57.7997 10.616 57.3197 10.184C56.8557 9.75198 56.1597 9.53598 55.2317 9.53598C54.5437 9.53598 53.8877 9.65598 53.2637 9.89598C52.6397 10.136 51.9837 10.488 51.2957 10.952L50.2637 8.83998C51.0957 8.29598 51.9437 7.88798 52.8077 7.61598C53.6877 7.34398 54.6077 7.20798 55.5677 7.20798C57.3597 7.20798 58.7517 7.65598 59.7437 8.55198C60.7517 9.44798 61.2557 10.728 61.2557 12.392V16.4C61.2557 16.736 61.3117 16.976 61.4237 17.12C61.5517 17.264 61.7517 17.352 62.0237 17.384V20C61.7357 20.048 61.4717 20.088 61.2317 20.12C61.0077 20.152 60.8157 20.168 60.6557 20.168C60.0157 20.168 59.5277 20.024 59.1917 19.736C58.8717 19.448 58.6717 19.096 58.5917 18.68L58.5197 18.032C57.9757 18.736 57.2957 19.28 56.4797 19.664C55.6637 20.048 54.8317 20.24 53.9837 20.24C53.1517 20.24 52.3997 20.072 51.7277 19.736C51.0717 19.384 50.5517 18.912 50.1677 18.32C49.7997 17.712 49.6157 17.032 49.6157 16.28ZM57.4397 16.928C57.6157 16.736 57.7597 16.544 57.8717 16.352C57.9837 16.16 58.0397 15.984 58.0397 15.824V14.552C57.6557 14.392 57.2397 14.272 56.7917 14.192C56.3437 14.096 55.9197 14.048 55.5197 14.048C54.6877 14.048 53.9997 14.232 53.4557 14.6C52.9277 14.952 52.6637 15.424 52.6637 16.016C52.6637 16.336 52.7517 16.64 52.9277 16.928C53.1037 17.216 53.3597 17.448 53.6957 17.624C54.0317 17.8 54.4317 17.888 54.8957 17.888C55.3757 17.888 55.8477 17.8 56.3117 17.624C56.7757 17.432 57.1517 17.2 57.4397 16.928Z" fill="#E8E8E8"/>
<path d="M71.413 20.24C70.453 20.24 69.597 20.024 68.845 19.592C68.093 19.16 67.501 18.568 67.069 17.816V20H64.261V2.47998H67.477V9.63198C67.925 8.87998 68.509 8.28798 69.229 7.85598C69.965 7.42398 70.821 7.20798 71.797 7.20798C72.613 7.20798 73.357 7.38398 74.029 7.73598C74.701 8.07198 75.277 8.54398 75.757 9.15198C76.253 9.75998 76.629 10.456 76.885 11.24C77.157 12.024 77.293 12.864 77.293 13.76C77.293 14.656 77.141 15.496 76.837 16.28C76.549 17.064 76.141 17.76 75.613 18.368C75.085 18.96 74.461 19.424 73.741 19.76C73.037 20.08 72.261 20.24 71.413 20.24ZM70.525 17.504C71.037 17.504 71.5009 17.408 71.917 17.216C72.3489 17.008 72.7169 16.736 73.021 16.4C73.341 16.064 73.581 15.672 73.741 15.224C73.917 14.76 74.005 14.28 74.005 13.784C74.005 13.096 73.861 12.464 73.573 11.888C73.301 11.296 72.917 10.824 72.421 10.472C71.941 10.12 71.373 9.94398 70.717 9.94398C70.253 9.94398 69.805 10.056 69.373 10.28C68.957 10.488 68.581 10.776 68.245 11.144C67.925 11.512 67.669 11.928 67.477 12.392V15.392C67.573 15.712 67.725 16 67.933 16.256C68.157 16.512 68.413 16.736 68.701 16.928C68.989 17.104 69.285 17.248 69.589 17.36C69.909 17.456 70.221 17.504 70.525 17.504Z" fill="#E8E8E8"/>
<path d="M85.3039 20.24C84.2959 20.24 83.3839 20.072 82.5679 19.736C81.7519 19.384 81.0559 18.912 80.4799 18.32C79.9039 17.712 79.4559 17.024 79.1359 16.256C78.8319 15.472 78.6799 14.648 78.6799 13.784C78.6799 12.584 78.9439 11.488 79.4719 10.496C80.0159 9.50398 80.7839 8.71198 81.7759 8.11998C82.7839 7.51198 83.9679 7.20798 85.3279 7.20798C86.7039 7.20798 87.8799 7.51198 88.8559 8.11998C89.8319 8.71198 90.5759 9.50398 91.0879 10.496C91.6159 11.472 91.8799 12.528 91.8799 13.664C91.8799 13.856 91.8719 14.056 91.8559 14.264C91.8399 14.456 91.8239 14.616 91.8079 14.744H82.0879C82.1519 15.384 82.3359 15.944 82.6399 16.424C82.9599 16.904 83.3599 17.272 83.8399 17.528C84.3359 17.768 84.8639 17.888 85.4239 17.888C86.0639 17.888 86.6639 17.736 87.2239 17.432C87.7999 17.112 88.1919 16.696 88.3999 16.184L91.1599 16.952C90.8559 17.592 90.4159 18.16 89.8399 18.656C89.2799 19.152 88.6159 19.544 87.8479 19.832C87.0799 20.104 86.2319 20.24 85.3039 20.24ZM82.0159 12.704H88.5919C88.5279 12.064 88.3439 11.512 88.0399 11.048C87.7519 10.568 87.3679 10.2 86.8879 9.94398C86.4079 9.67198 85.8719 9.53598 85.2799 9.53598C84.7039 9.53598 84.1759 9.67198 83.6959 9.94398C83.2319 10.2 82.8479 10.568 82.5439 11.048C82.2559 11.512 82.0799 12.064 82.0159 12.704Z" fill="#E8E8E8"/>
<path d="M101.327 10.208C100.351 10.208 99.4791 10.4 98.7111 10.784C97.9431 11.152 97.3911 11.688 97.0551 12.392V20H93.8391V7.42398H96.7911V10.112C97.2391 9.24798 97.8071 8.56798 98.4951 8.07198C99.1831 7.57598 99.9111 7.30398 100.679 7.25598C100.855 7.25598 100.991 7.25598 101.087 7.25598C101.183 7.25598 101.263 7.26398 101.327 7.27998V10.208Z" fill="#E8E8E8"/>
<path d="M27.914 1.42288C27.8577 1.52168 27.8262 1.60191 27.8441 1.60115C27.8621 1.60038 27.8372 1.64141 27.7888 1.69231C27.6715 1.81563 27.6874 2.04032 27.8181 2.1064C27.876 2.13564 27.9029 2.16119 27.8781 2.16319C27.8532 2.16509 27.8745 2.22254 27.9254 2.29062C28.0374 2.44035 28.0232 2.69174 27.8834 3.03628C27.8266 3.17627 27.7941 3.30318 27.8113 3.31831C27.8284 3.33343 27.6494 3.55279 27.4135 3.80577C27.1775 4.05875 26.8931 4.36497 26.7815 4.48627C26.6699 4.60757 26.5455 4.70822 26.505 4.70993C26.4646 4.71164 26.4121 4.74857 26.3882 4.792C26.3644 4.83542 26.2619 4.91633 26.1605 4.97179C25.9953 5.06213 25.8031 5.30486 25.9001 5.30075C25.9212 5.29985 25.912 5.33283 25.8796 5.37402C25.8472 5.41522 25.8111 5.51616 25.7995 5.59835C25.7679 5.82127 25.6502 5.98271 25.2135 6.40202C24.996 6.61083 24.8182 6.80849 24.8184 6.84125C24.8191 6.91654 24.101 7.4598 23.8495 7.57441C23.7457 7.62172 23.4711 7.69586 23.2393 7.73915C22.7036 7.83921 22.2006 7.78312 21.5092 7.5462C21.2316 7.45107 20.9762 7.37444 20.9416 7.3759C20.907 7.37737 20.7028 7.55133 20.4876 7.76249C20.2725 7.97365 20.0776 8.14722 20.0545 8.14821C19.9923 8.15087 19.6149 8.52553 19.6175 8.58209C19.6197 8.62971 19.5657 8.70282 19.0994 9.28446C18.7875 9.67352 18.3344 10.1708 18.2892 10.1737C18.1746 10.1811 17.3874 11.1616 17.3932 11.2896C17.3943 11.3121 17.3372 11.4117 17.2664 11.5109C17.1956 11.61 17.0767 11.8337 17.0022 12.0078C16.8439 12.3775 16.6679 12.5869 16.226 12.931C15.9007 13.1843 15.5682 13.5627 15.2983 13.9868C15.2166 14.1151 15.044 14.374 14.9146 14.562C14.6302 14.9753 14.0059 15.9803 13.567 16.7314C13.39 17.0342 13.1895 17.3479 13.1215 17.4285C13.0534 17.5091 12.9837 17.6284 12.9665 17.6936C12.9493 17.7588 12.8913 17.8629 12.8375 17.9251C12.7837 17.9873 12.6587 18.1735 12.5598 18.339C12.4608 18.5045 12.3622 18.6485 12.3405 18.6591C12.2934 18.6822 11.9459 19.1445 11.8222 19.3487C11.7739 19.4284 11.5745 19.6683 11.3791 19.8817C11.1837 20.0951 10.8919 20.4167 10.7306 20.5963C10.5693 20.776 10.4369 20.9129 10.4363 20.9005C10.4358 20.8882 10.3908 20.9157 10.3364 20.9617C9.19101 21.9309 8.63975 22.3007 7.58245 22.809C6.98032 23.0985 6.27149 23.3736 6.12613 23.3741C6.08918 23.3742 6.27919 23.2805 6.54836 23.1658C7.29744 22.8466 7.58937 22.6918 7.54924 22.635C7.52913 22.6065 7.53392 22.5803 7.55987 22.5767C7.58583 22.5731 7.67271 22.5618 7.75296 22.5517C7.95928 22.5258 8.41995 22.2062 8.32478 22.155C8.26632 22.1235 8.26593 22.0856 8.32297 21.9772C8.41722 21.798 8.47948 21.7529 8.64407 21.7449C8.73715 21.7403 8.76423 21.7169 8.73095 21.6697C8.70436 21.632 8.75518 21.6426 8.84389 21.6932C9.03144 21.8003 9.09336 21.8086 9.02942 21.7181C8.99948 21.6758 9.01578 21.6641 9.0773 21.6839C9.17058 21.7139 9.18271 21.6365 9.10232 21.5241C9.04937 21.4501 9.10754 21.3591 9.24289 21.3043C9.30529 21.2791 9.33471 21.2278 9.31363 21.1812C9.29186 21.133 9.32255 21.0854 9.39097 21.0613C9.45335 21.0392 9.48819 20.9983 9.4684 20.9703C9.44859 20.9423 9.47172 20.9177 9.51979 20.9157C9.56786 20.9138 9.6208 20.8669 9.63745 20.8118C9.67121 20.7 9.91741 20.3902 9.97438 20.3878C10.0436 20.3848 10.3334 20.0472 10.2954 20.0137C10.2744 19.9952 10.2859 19.9789 10.3209 19.9774C10.4162 19.9734 11.6112 18.6701 12.1002 18.0369C12.5429 17.4637 13.617 15.9542 13.9447 15.4449C14.3924 14.749 15.3034 13.5837 15.8123 13.0561C16.307 12.5431 16.3981 12.4132 16.6848 11.8118C16.9297 11.298 17.0942 11.0427 17.3856 10.7242C17.595 10.4954 17.7918 10.2591 17.8228 10.1992C17.8679 10.1123 17.89 10.1053 17.932 10.1647C17.973 10.2228 17.9918 10.2144 18.0175 10.1263C18.0355 10.0643 18.0691 9.94911 18.0922 9.87042C18.1152 9.79173 18.1417 9.59985 18.1511 9.44402C18.1604 9.2882 18.1849 9.10912 18.2055 9.04608C18.2352 8.95481 18.2068 8.96681 18.0656 9.10497C17.9681 9.2004 17.8896 9.31818 17.8912 9.36669C17.8928 9.41521 17.7659 9.53572 17.6092 9.63449C17.3161 9.81931 17.2185 10.0098 17.234 10.3665C17.238 10.4578 17.191 10.55 17.1125 10.6054C16.8988 10.756 16.7033 10.9528 16.6981 11.0224C16.6954 11.0587 16.6917 11.1217 16.6898 11.1624C16.6881 11.2032 16.6606 11.2226 16.6289 11.2056C16.5568 11.1668 16.2768 11.4167 16.3215 11.48C16.3396 11.5056 16.3281 11.5277 16.2963 11.529C16.2644 11.5303 16.2233 11.5848 16.2051 11.65C16.1838 11.7261 16.1394 11.7581 16.0813 11.7394C16.018 11.7191 16.0021 11.7356 16.0285 11.7941C16.0515 11.8449 16.0333 11.8793 15.9822 11.8814C15.9341 11.8834 15.913 11.9183 15.933 11.9626C15.9523 12.0053 15.9431 12.0565 15.9126 12.0766C15.882 12.0966 15.8721 12.1599 15.8905 12.2173C15.9133 12.2885 15.8695 12.3627 15.7524 12.4506C15.658 12.5216 15.5666 12.6304 15.5492 12.6925C15.5318 12.7546 15.4782 12.8071 15.4302 12.8091C15.3821 12.8113 15.3595 12.8365 15.38 12.8655C15.4021 12.8967 15.3437 12.897 15.2368 12.8662C15.1375 12.8375 15.0559 12.7975 15.0555 12.7772C15.0544 12.7166 15.1442 12.5853 15.1846 12.5887C15.2053 12.5904 15.2216 12.5792 15.2209 12.5637C15.2203 12.5482 15.2189 12.5189 15.218 12.4986C15.2171 12.4783 15.1718 12.5003 15.1175 12.5477C15.0632 12.595 14.9469 12.6722 14.8591 12.7193C14.7582 12.7734 14.713 12.8345 14.736 12.8855C14.766 12.9518 14.7561 12.9542 14.68 12.8986C14.6117 12.8487 14.5883 12.8485 14.5905 12.8977C14.5923 12.9344 14.5653 12.9492 14.5308 12.9306C14.4522 12.8883 14.2922 13.0215 14.3401 13.0893C14.3596 13.1168 14.3415 13.1337 14.2999 13.127C14.2583 13.1202 14.2248 13.1528 14.2254 13.1994C14.2261 13.246 14.1871 13.2858 14.1388 13.2878C14.0904 13.29 14.0521 13.3188 14.0536 13.352C14.0552 13.3852 14.0148 13.4562 13.964 13.5096C13.8817 13.5961 13.863 13.5978 13.7939 13.5245C13.7262 13.4525 13.6945 13.4642 13.5429 13.6166C13.3894 13.7709 13.3286 13.7926 13.0177 13.8042C12.7444 13.8143 12.6982 13.8051 12.8104 13.7623C12.9207 13.7202 12.8937 13.7153 12.6951 13.7417C12.5234 13.7644 12.4635 13.7574 12.5181 13.7208C12.5634 13.6904 12.6715 13.6622 12.7581 13.658C12.8448 13.6539 12.9309 13.6244 12.9494 13.5925C12.9993 13.5065 12.7987 13.5304 12.4868 13.6477C12.3143 13.7125 12.2386 13.7662 12.2845 13.7909C12.338 13.8197 12.329 13.8491 12.2514 13.8989C12.1617 13.9564 12.1725 13.9603 12.3188 13.9235L12.4929 13.8797L12.2812 14.0348C12.1647 14.1201 11.9676 14.2279 11.8433 14.2744C11.6914 14.3311 11.5455 14.4541 11.3991 14.649C11.1797 14.9409 10.8853 15.2392 10.5707 15.488C10.4758 15.563 10.4495 15.6036 10.5111 15.5798C10.5874 15.5502 10.6093 15.558 10.5822 15.6049C10.54 15.6775 10.6217 15.6952 10.6862 15.6274C10.7075 15.605 10.7801 15.5761 10.8476 15.5633C11.2128 15.4937 10.4528 15.9788 9.82144 16.2183C9.52017 16.3326 9.50817 16.333 9.28628 16.2356C9.16144 16.1808 9.03945 16.1548 9.01519 16.1778C8.99092 16.2008 8.98672 16.1903 9.00585 16.1545C9.02497 16.1186 9.19002 16.0249 9.37261 15.9462C10.1655 15.6045 10.7314 15.2448 11.1419 14.8215C11.4118 14.5432 11.5478 14.3572 11.5467 14.2675C11.5459 14.1932 11.5599 14.1636 11.578 14.2017C11.596 14.2398 11.6678 14.2678 11.7376 14.2639C11.8519 14.2575 11.8541 14.2515 11.7593 14.2036C11.627 14.1367 11.6198 14.0245 11.7411 13.9191C11.7927 13.8742 11.8827 13.7592 11.9411 13.6635C11.9995 13.5678 12.0329 13.5382 12.0153 13.5977C11.9879 13.6907 11.9958 13.695 12.0719 13.6286C12.1206 13.5861 12.1449 13.5171 12.126 13.4752C12.1048 13.4283 12.1519 13.3741 12.249 13.3339C12.4695 13.2423 12.9681 12.8853 13.3692 12.5317C13.5561 12.367 13.801 12.1597 13.9135 12.0712C14.1285 11.9021 15.0092 10.9913 15.675 10.2495C15.8912 10.0087 16.2127 9.58342 16.3895 9.30456C16.5662 9.02569 16.7225 8.80779 16.7367 8.82033C16.7509 8.83286 16.7201 8.91203 16.6681 8.99624C16.597 9.11152 16.591 9.16465 16.6439 9.21129C16.6968 9.25793 16.713 9.24872 16.7096 9.17401C16.7071 9.11944 16.7277 9.08694 16.7553 9.1018C16.7829 9.11665 16.9166 9.00684 17.0523 8.85774C17.2961 8.58991 17.2966 8.58862 17.0892 8.75033L16.8792 8.91399L16.9325 8.72331C16.9617 8.61844 16.9832 8.49265 16.9801 8.44378C16.9769 8.39253 17.0609 8.32065 17.1786 8.27394C17.4243 8.17643 17.7967 7.83387 17.9073 7.60366C17.9515 7.51177 17.9763 7.36984 17.9625 7.28826C17.9397 7.15315 17.9607 7.13452 18.1988 7.07908C18.3425 7.0456 18.4982 6.98447 18.5447 6.94321C18.5913 6.90196 18.718 6.8353 18.8264 6.79506C18.9875 6.73523 19.5673 6.19949 19.5634 6.11401C19.5628 6.10097 19.5051 5.98183 19.4352 5.84928C19.1351 5.28025 19.3312 4.69927 19.8827 4.5238C20.1406 4.44173 20.7169 4.40756 21.0139 4.45671C21.2179 4.49049 21.2269 4.48352 21.6408 3.97399C21.8718 3.68964 22.1176 3.37045 22.1871 3.26469C22.2566 3.15893 22.3289 3.08603 22.3478 3.10268C22.3667 3.11933 22.3215 3.20537 22.2474 3.29388L22.1127 3.45479L22.2676 3.31121C22.3527 3.23224 22.4198 3.11009 22.4166 3.03976C22.4134 2.96944 22.4364 2.89509 22.4677 2.87455C22.4991 2.85402 22.5261 2.86802 22.5278 2.90569C22.5298 2.94819 22.5737 2.93355 22.6435 2.86711C22.7911 2.72662 22.7964 2.55521 22.6494 2.67553C22.4303 2.8549 23.4788 1.74902 23.9514 1.30231C24.5614 0.72571 24.8966 0.492323 25.4305 0.272424C26.4473 -0.146417 26.86 -0.0970747 27.5301 0.523478C27.985 0.94471 28.0714 1.14708 27.914 1.42288ZM27.5662 1.9803C27.5308 1.95071 27.4404 1.92087 27.3654 1.91399C27.2331 1.90184 27.2319 1.90627 27.3242 2.06115C27.4624 2.29284 27.6059 2.38883 27.6641 2.2885C27.713 2.20419 27.6692 2.06629 27.5662 1.9803ZM27.3629 1.45598C27.3307 1.45734 27.3719 1.49194 27.4544 1.53287C27.537 1.5738 27.6309 1.60617 27.6632 1.60481C27.6954 1.60344 27.6542 1.56884 27.5716 1.52791C27.489 1.48698 27.3951 1.45461 27.3629 1.45598ZM27.3524 1.65605C27.3249 1.6412 27.3039 1.6649 27.3059 1.70872C27.3079 1.75253 27.331 1.77437 27.3571 1.75725C27.3832 1.74013 27.4041 1.71644 27.4036 1.70459C27.4029 1.69275 27.38 1.6709 27.3524 1.65605ZM26.8993 1.58459C26.7824 1.62732 26.6061 1.65026 26.5075 1.63558C26.3615 1.61383 26.3411 1.62249 26.3975 1.68228C26.4511 1.73921 26.535 1.74105 26.7719 1.69046C26.9397 1.6546 27.1108 1.62147 27.1521 1.61685C27.1989 1.6116 27.2054 1.58941 27.1694 1.55768C27.1335 1.52595 27.0322 1.53605 26.8993 1.58459ZM27.102 2.1423C27.0383 2.09574 26.9757 2.10473 26.8396 2.17999C26.6348 2.29323 26.4313 2.26425 26.4247 2.12092C26.4183 1.97929 26.2967 1.89277 26.1149 1.90046C25.984 1.90601 25.9609 1.88684 25.9825 1.79032C25.9993 1.71499 25.9571 1.62513 25.8637 1.53748C25.6806 1.36563 25.3302 1.17504 25.2849 1.22267C25.266 1.24257 25.2813 1.25753 25.3189 1.25594C25.4014 1.25245 25.8761 1.67455 25.8797 1.7546C25.8813 1.78752 25.8461 1.78468 25.7956 1.7478C25.6211 1.62042 25.3686 1.83447 24.4259 2.90866C23.7622 3.66495 22.9623 4.7065 22.9669 4.80833C22.9678 4.82982 22.8689 4.97474 22.7469 5.13038C22.3682 5.6133 22.4591 5.80341 23.2312 6.14401C23.7763 6.38447 24.1305 6.40737 24.3998 6.21957C24.7273 5.99112 25.0634 5.59712 25.4106 5.03433C25.6071 4.71577 25.8069 4.43881 25.8545 4.41887C25.9021 4.39893 25.9397 4.35167 25.9379 4.31386C25.9337 4.22211 26.1564 4.01223 26.3149 3.95858C26.3848 3.93492 26.4575 3.85896 26.4765 3.78981C26.4955 3.72065 26.6655 3.49129 26.8542 3.28012C27.1931 2.90105 27.1974 2.89179 27.1916 2.5498C27.1876 2.31452 27.1589 2.18381 27.102 2.1423ZM26.8112 1.06808C26.6712 1.15149 26.7983 1.18962 26.9657 1.11443C27.0815 1.06243 27.0897 1.04611 27.0078 1.0307C26.9518 1.02017 26.8633 1.03699 26.8112 1.06808ZM26.9488 3.95638C26.9005 3.95843 26.8621 3.98469 26.8634 4.01474C26.8648 4.04479 26.9048 4.0531 26.9523 4.03319C26.9998 4.01328 27.0383 3.98702 27.0377 3.97483C27.0373 3.96262 26.9971 3.95433 26.9488 3.95638ZM26.8391 3.79895C26.7495 3.85009 26.7351 3.87913 26.7915 3.89462C26.8361 3.90686 26.8939 3.88108 26.9199 3.83732C26.9889 3.72145 26.9812 3.71778 26.8391 3.79895ZM26.6497 1.90607C26.6166 1.88827 26.5908 1.90058 26.5923 1.93343C26.5938 1.96629 26.6214 1.99205 26.6536 1.99069C26.6858 1.98932 26.7117 1.97702 26.711 1.96333C26.7106 1.94963 26.6828 1.92389 26.6497 1.90607ZM26.4369 1.01319C26.4061 0.996612 26.3655 1.00955 26.3467 1.04193C26.3279 1.07432 26.3536 1.09908 26.4038 1.09695C26.5067 1.09259 26.5204 1.0581 26.4369 1.01319ZM26.3722 4.31992C26.2785 4.32389 26.2682 4.46992 26.3581 4.51833C26.3912 4.53614 26.4428 4.53465 26.4728 4.51497C26.5487 4.46527 26.4715 4.31571 26.3722 4.31992ZM25.9573 4.82118C25.805 4.96613 25.8668 4.99305 26.054 4.86329C26.1414 4.80272 26.178 4.74738 26.1379 4.73638C26.0989 4.72567 26.0176 4.76381 25.9573 4.82118ZM25.486 1.10219C25.1998 0.973872 25.1624 1.03274 25.4422 1.17119C25.5908 1.24475 25.7352 1.34007 25.7629 1.38301C25.7907 1.42594 25.8431 1.45982 25.8793 1.45828C25.9727 1.45433 25.6797 1.18904 25.486 1.10219ZM25.4844 0.370791C25.371 0.396297 25.293 0.430127 25.311 0.445989C25.329 0.461844 25.4566 0.451055 25.5947 0.421989C25.7327 0.392922 25.8108 0.359083 25.7681 0.346791C25.7255 0.334498 25.5978 0.345318 25.4844 0.370791ZM25.2151 5.63095C25.1788 5.59895 25.0336 5.95971 24.997 6.17266C24.943 6.48768 25.1685 6.35474 25.2487 6.02431C25.2855 5.87241 25.269 5.67846 25.2151 5.63095ZM24.3822 1.12672C24.2509 1.19842 24.1572 1.26922 24.174 1.28405C24.1908 1.29889 24.3091 1.25394 24.4369 1.1842C24.5647 1.11444 24.7426 1.0502 24.8323 1.04142C24.9862 1.02636 24.9849 1.02466 24.8082 1.01091C24.6932 1.00196 24.529 1.04661 24.3822 1.12672ZM23.9341 7.34837C23.8542 7.3666 23.7899 7.40396 23.7911 7.43137C23.7941 7.4962 23.835 7.49251 23.9703 7.41521C24.1198 7.32985 24.1083 7.3086 23.9341 7.34837ZM23.3139 6.68867C23.2609 6.6716 23.2378 6.68206 23.2598 6.71317C23.2809 6.74301 23.323 6.76637 23.3533 6.76509C23.4375 6.76152 23.4171 6.72187 23.3139 6.68867ZM23.0964 2.85071C23.0561 2.86758 22.9899 2.93953 22.9492 3.01059C22.8787 3.13382 22.8821 3.13317 23.0232 2.99651C23.1884 2.83652 23.2038 2.80568 23.0964 2.85071ZM23.0439 6.72347C22.9954 6.72659 23.0104 6.7576 23.0841 6.80654C23.2377 6.90851 23.3309 6.90326 23.213 6.79938C23.1626 6.75488 23.0865 6.72067 23.0439 6.72347ZM22.6098 6.45659C22.5098 6.46018 22.5016 6.44977 22.5686 6.40485C22.6389 6.3578 22.6334 6.34302 22.5351 6.31377C22.4706 6.29456 22.3699 6.24265 22.3114 6.1984C22.2529 6.15416 22.2059 6.13852 22.2071 6.16365C22.2082 6.18879 22.1564 6.16729 22.0919 6.11582C21.9375 5.9927 21.7629 6.03585 21.7617 6.1974C21.7611 6.30258 21.7916 6.32256 21.9433 6.31627C22.0466 6.31198 22.2724 6.38565 22.4642 6.48622C22.7493 6.63569 22.7974 6.64703 22.7688 6.55795C22.749 6.49619 22.6828 6.454 22.6098 6.45659ZM22.5315 7.36926C22.4745 7.32762 22.4343 7.32656 22.4114 7.36608C22.3757 7.42755 21.9686 7.42887 21.8553 7.36788C21.8199 7.34885 21.7915 7.34537 21.7922 7.36019C21.7928 7.37498 21.7798 7.42631 21.7632 7.47421C21.7404 7.53973 21.8104 7.57994 22.0454 7.63644C22.4994 7.74562 22.6308 7.72959 22.6233 7.56594C22.6199 7.49218 22.5786 7.40367 22.5315 7.36926ZM22.3253 3.47395C22.2965 3.47517 22.2595 3.51489 22.2431 3.56221C22.2128 3.64965 22.2765 3.67655 22.3446 3.60502C22.3981 3.54873 22.3867 3.47135 22.3253 3.47395ZM22.1984 4.31455C22.1875 4.3858 22.1177 4.51328 22.0432 4.59784C21.8676 4.79715 21.8719 4.90829 22.0483 4.73393C22.1745 4.60924 22.1858 4.60716 22.2162 4.70283C22.2341 4.75925 22.2418 4.66581 22.2334 4.4952C22.2249 4.32458 22.2091 4.24331 22.1984 4.31455ZM21.9542 7.29441C21.9083 7.3144 21.9228 7.32717 21.9912 7.32699C22.0531 7.32683 22.0871 7.31203 22.0667 7.2941C22.0464 7.27619 21.9958 7.27633 21.9542 7.29441ZM21.6438 6.17455C21.6252 6.19412 21.6254 6.24286 21.6441 6.28287C21.6648 6.32708 21.6781 6.31312 21.6779 6.24729C21.6777 6.18772 21.6625 6.15498 21.6438 6.17455ZM21.6136 6.01922C21.5805 6.00141 21.5546 6.01372 21.5561 6.04657C21.5577 6.07943 21.5852 6.1052 21.6175 6.10383C21.6497 6.10247 21.6755 6.09016 21.6749 6.07647C21.6745 6.06277 21.6467 6.03703 21.6136 6.01922ZM21.0578 5.27974C20.6814 4.82963 20.5218 4.73724 20.1484 4.75305L19.9097 4.76316L20.0083 4.92855C20.0625 5.01951 20.1311 5.09291 20.1606 5.09166C20.1902 5.0904 20.207 5.13718 20.1981 5.19561C20.1857 5.27617 20.2384 5.31719 20.416 5.36541C20.547 5.40098 20.7225 5.50889 20.8144 5.61038C20.9047 5.71014 21.0052 5.79064 21.0377 5.78927C21.0701 5.7879 21.0226 5.71857 20.932 5.63522C20.735 5.4539 20.7298 5.42869 20.8797 5.38406C20.9653 5.3586 21.046 5.40816 21.1924 5.57618C21.301 5.70072 21.4168 5.8269 21.4499 5.85659C21.5388 5.93645 21.2429 5.50096 21.0578 5.27974ZM21.352 5.97054C21.3036 5.9123 21.2451 5.88448 21.222 5.90872C21.199 5.93296 21.2108 5.9515 21.2485 5.9499C21.2861 5.9483 21.3185 5.98358 21.3205 6.02829C21.3225 6.073 21.3513 6.12415 21.3844 6.14196C21.4721 6.18915 21.4539 6.09307 21.352 5.97054ZM20.4761 5.77444C20.4302 5.79444 20.4447 5.80721 20.5131 5.80702C20.575 5.80686 20.609 5.79205 20.5886 5.77414C20.5683 5.75622 20.5177 5.75636 20.4761 5.77444ZM20.2008 6.84207C20.1612 6.84375 20.1414 6.80901 20.1567 6.76487C20.172 6.72074 20.1594 6.67111 20.1287 6.65459C20.098 6.63807 20.0833 6.68923 20.096 6.76829C20.1087 6.84733 20.1279 6.91576 20.1387 6.92034C20.1495 6.9249 20.2197 6.95841 20.2948 6.99479C20.4231 7.05703 20.4265 7.05438 20.352 6.94998C20.3084 6.88895 20.2404 6.84039 20.2008 6.84207ZM19.9456 7.96587C19.8841 7.98417 19.8217 8.0342 19.8068 8.07705C19.785 8.13988 19.807 8.14159 19.9205 8.08584C20.0876 8.00385 20.1055 7.91831 19.9456 7.96587ZM19.4379 6.70998C19.3154 6.49758 19.2921 6.50764 19.3421 6.75127C19.3635 6.85583 19.414 6.93191 19.4607 6.92993C19.5619 6.92565 19.5619 6.92522 19.4379 6.70998ZM19.0697 7.51169C18.9686 7.70091 18.9744 7.80085 19.0781 7.65596C19.1226 7.59373 19.1563 7.50329 19.153 7.45497C19.1491 7.39866 19.1193 7.41902 19.0697 7.51169ZM18.9743 7.85485C18.9616 7.85538 18.9374 7.89589 18.9204 7.94485C18.9026 7.9959 18.9135 8.01812 18.9458 7.99695C19 7.96147 19.0217 7.85284 18.9743 7.85485ZM18.6802 8.37598C18.4841 8.38429 18.1783 9.2254 18.2017 9.69203C18.2197 10.0532 18.3158 10.062 18.3331 9.70396C18.3475 9.40708 18.4677 9.02959 18.5747 8.94566C18.6152 8.91391 18.7202 8.56352 18.7248 8.44475C18.7264 8.40583 18.7063 8.37486 18.6802 8.37598ZM18.3847 8.05991C18.3298 7.99446 18.308 7.99337 18.2726 8.05429C18.2436 8.10431 18.251 8.11535 18.2945 8.08685C18.3335 8.0613 18.3619 8.07958 18.3643 8.13169C18.3668 8.1866 18.4178 8.21586 18.4999 8.20959C18.5888 8.20282 18.6025 8.19008 18.5422 8.17038C18.493 8.15432 18.4221 8.10462 18.3847 8.05991ZM18.4894 8.29929C18.458 8.31982 18.4335 8.36201 18.435 8.39304C18.4363 8.42407 18.4632 8.43265 18.4945 8.41211C18.5259 8.39158 18.5504 8.34938 18.5489 8.31835C18.5476 8.28732 18.5207 8.27874 18.4894 8.29929ZM18.3181 7.11962C18.285 7.10182 18.2591 7.11262 18.2605 7.14365C18.2618 7.17468 18.2901 7.21463 18.3232 7.23244C18.3563 7.25025 18.3823 7.23945 18.3808 7.20842C18.3795 7.17739 18.3512 7.13743 18.3181 7.11962ZM18.3479 8.27702C18.3353 8.27755 18.3114 8.31671 18.295 8.36404C18.2786 8.41136 18.2907 8.449 18.3219 8.44768C18.3531 8.44636 18.3769 8.4072 18.3748 8.36066C18.3725 8.31412 18.3606 8.27648 18.3479 8.27702ZM17.9905 8.85735C17.9605 8.85863 17.9214 8.91151 17.9036 8.97489C17.8859 9.03826 17.842 9.07434 17.8062 9.05506C17.7704 9.03577 17.7585 9.04469 17.7798 9.07485C17.8012 9.10501 17.7344 9.22642 17.6315 9.34464C17.5286 9.46287 17.4655 9.57096 17.4913 9.58485C17.5379 9.60994 17.8639 9.22032 17.9815 8.99903C18.0574 8.85608 18.0575 8.85451 17.9905 8.85735ZM17.881 8.50874C17.766 8.49259 17.706 8.52609 17.6196 8.65453C17.5114 8.81534 17.3489 8.90136 17.432 8.75383C17.4581 8.70764 17.4329 8.71284 17.3628 8.76822C17.1367 8.94647 16.9994 9.09035 17.0019 9.14624C17.0032 9.17795 17.0929 9.11386 17.2009 9.00384C17.3088 8.89381 17.3967 8.82787 17.396 8.85731C17.3954 8.88675 17.2835 9.00457 17.1474 9.11914C17.0113 9.2337 16.8997 9.35774 16.8994 9.39477C16.8992 9.43181 16.8693 9.48151 16.8332 9.50522C16.7896 9.53375 16.7822 9.52267 16.8114 9.47249C16.8399 9.42336 16.8331 9.41125 16.7921 9.43812C16.7573 9.46093 16.7453 9.51624 16.7656 9.56101C16.7858 9.60579 16.7732 9.64366 16.7375 9.64517C16.7018 9.64669 16.6744 9.686 16.6765 9.73253C16.6808 9.82739 16.8309 9.84158 16.8829 9.75206C16.9013 9.72019 16.959 9.69231 17.0109 9.69011C17.1443 9.68447 17.312 9.51023 17.3063 9.38344C17.3001 9.24897 17.4479 8.93547 17.5726 8.81853C17.6247 8.76969 17.69 8.68542 17.7177 8.63126C17.747 8.57385 17.7983 8.54908 17.8406 8.57186C17.8928 8.5999 17.8745 8.65493 17.776 8.76668C17.7005 8.85233 17.6007 8.9451 17.5541 8.97284C17.4772 9.01867 17.3806 9.44837 17.4479 9.44553C17.4637 9.44486 17.5505 9.30596 17.641 9.13687C17.7315 8.96777 17.8569 8.78048 17.9198 8.72066C18.0697 8.57798 18.0618 8.53412 17.881 8.50874ZM16.8947 10.4412C16.7789 10.5367 16.7195 10.6005 16.5777 10.7813C16.5061 10.8726 16.5698 10.8392 16.7574 10.6872C16.9172 10.5576 17.0346 10.4318 17.0182 10.4077C17.0018 10.3836 16.9462 10.3986 16.8947 10.4412ZM16.5709 9.20007C16.5585 9.2006 16.5049 9.27281 16.4517 9.36055L16.3551 9.52007L16.4765 9.40726C16.5838 9.30743 16.634 9.1974 16.5709 9.20007ZM16.4755 10.9562C16.4633 10.9569 16.4192 11.0031 16.3774 11.0593C16.3087 11.1518 16.3108 11.1537 16.4005 11.0796C16.4947 11.0018 16.5237 10.9542 16.4755 10.9562ZM16.206 9.75411C16.0372 9.91474 15.9002 10.1752 15.7813 10.5617C15.6868 10.8685 15.6861 10.8908 15.7748 10.7695C15.8294 10.6947 15.9305 10.4664 15.9994 10.262C16.0683 10.0576 16.1693 9.84793 16.2238 9.79605C16.2783 9.74418 16.3223 9.68904 16.3216 9.67352C16.321 9.65798 16.2689 9.69428 16.206 9.75411ZM16.31 11.1893C16.2979 11.19 16.2537 11.2362 16.212 11.2924C16.1432 11.3849 16.1454 11.3868 16.2351 11.3127C16.3293 11.2349 16.3582 11.1873 16.31 11.1893ZM15.9277 11.3567C15.6666 11.6421 15.5909 11.785 15.7032 11.7802C15.7696 11.7774 15.92 11.6117 16.0767 11.3687C16.2909 11.0367 16.2252 11.0314 15.9277 11.3567ZM16.1094 11.4521C16.078 11.4727 16.0536 11.5149 16.055 11.5459C16.0563 11.5769 16.0832 11.5855 16.1145 11.565C16.1459 11.5444 16.1704 11.5022 16.169 11.4712C16.1676 11.4402 16.1407 11.4316 16.1094 11.4521ZM15.8482 11.2654C15.8385 11.266 15.7439 11.3652 15.6382 11.4862L15.446 11.7063L15.6568 11.5026C15.853 11.313 15.893 11.2635 15.8482 11.2654ZM15.5129 10.6014C15.4594 10.6036 15.4274 10.6576 15.4311 10.7392C15.4345 10.813 15.4016 10.967 15.3579 11.0814C15.3098 11.2077 15.3025 11.2885 15.3394 11.2869C15.4032 11.2842 15.4894 11.0864 15.5526 10.7975C15.5732 10.7034 15.5925 10.6199 15.5954 10.612C15.5983 10.6041 15.5612 10.5993 15.5129 10.6014ZM15.1759 10.9343C15.1272 10.9547 15.0927 11.0403 15.0968 11.1304C15.1008 11.2183 15.0816 11.305 15.054 11.3231C15.0265 11.3411 14.992 11.414 14.9775 11.4851C14.9513 11.6136 14.9516 11.6135 15.0433 11.4747C15.128 11.3466 15.2535 11.0359 15.2597 10.9388C15.261 10.9164 15.2234 10.9144 15.1759 10.9343ZM14.8387 12.3853C14.6093 12.5291 14.5734 12.5916 14.7504 12.5389C14.8141 12.52 14.8525 12.5281 14.8358 12.557C14.819 12.5859 14.8332 12.6083 14.8673 12.6069C14.9014 12.6054 14.9278 12.5693 14.9258 12.5266C14.9238 12.4838 14.961 12.415 15.0083 12.3737C15.1577 12.2433 15.0541 12.2503 14.8387 12.3853ZM14.7512 11.4081C14.7069 11.4547 14.7086 11.5019 14.7571 11.5746C14.8164 11.6636 14.824 11.6556 14.8189 11.5096C14.8147 11.3882 14.7963 11.3607 14.7512 11.4081ZM14.781 12.6105C14.7213 12.6131 14.351 12.7927 14.3522 12.8186C14.3535 12.8474 14.4186 12.8348 14.6576 12.7598C14.7908 12.7179 14.8832 12.6062 14.781 12.6105ZM14.2487 12.407C14.206 12.4087 14.1614 12.4743 14.1496 12.5525C14.1243 12.7191 14.2525 12.744 14.3339 12.5883C14.394 12.4734 14.3606 12.4023 14.2487 12.407ZM14.1301 12.8077C14.1161 12.8549 13.9917 13.0087 13.8537 13.1495C13.6801 13.3265 13.6479 13.3802 13.7492 13.3235C13.9073 13.235 14.2457 12.7937 14.1897 12.749C14.1709 12.7341 14.1442 12.7605 14.1301 12.8077ZM13.8825 13.3834C13.8683 13.3838 13.8415 13.4105 13.823 13.4424C13.8045 13.4743 13.8173 13.4992 13.8514 13.4977C13.8856 13.4962 13.9123 13.4697 13.9109 13.4387C13.9096 13.4076 13.8967 13.3828 13.8825 13.3834ZM13.1861 13.6331C12.9821 13.6758 12.9711 13.6856 13.0965 13.7128C13.1751 13.7299 13.289 13.7156 13.3495 13.6811C13.5056 13.5919 13.4546 13.5769 13.1861 13.6331ZM11.822 14.02C11.7571 14.0394 11.7176 14.0672 11.7343 14.0819C11.7674 14.1111 11.9431 14.0497 11.9413 14.0096C11.9408 13.996 11.887 14.0007 11.822 14.02ZM8.83103 21.7361C8.79881 21.7374 8.77367 21.7655 8.77518 21.7984C8.77668 21.8312 8.80355 21.8413 8.8349 21.8208C8.86625 21.8002 8.89138 21.7722 8.89075 21.7585C8.89013 21.7449 8.86326 21.7348 8.83103 21.7361ZM17.8814 10.003C17.8627 9.96296 17.8625 9.91422 17.8812 9.89465C17.8998 9.87507 17.9152 9.90783 17.9154 9.96738C17.9156 10.0332 17.9022 10.0472 17.8814 10.003ZM16.8213 9.04816C16.79 9.06869 16.7631 9.05861 16.7616 9.02577C16.7601 8.99291 16.7853 8.96491 16.8175 8.96355C16.8497 8.96218 16.8766 8.97226 16.8772 8.98594C16.8776 8.99965 16.8527 9.02762 16.8213 9.04816ZM8.93768 16.3622C8.90588 16.4145 8.88317 16.4225 8.88079 16.3821C8.87867 16.3452 8.90248 16.2982 8.93382 16.2776C9.00458 16.2313 9.00546 16.2508 8.93768 16.3622ZM8.70819 16.8371C8.39857 17.4267 8.06075 18.0053 7.89902 18.223C7.81213 18.34 7.74161 18.4481 7.7423 18.4633C7.74497 18.5216 7.9682 18.5338 8.05759 18.4806C8.18363 18.4055 8.17891 18.4709 8.0472 18.6245C7.988 18.6936 7.80638 18.9099 7.6436 19.1052C7.22022 19.6132 6.61475 20.1696 6.02195 20.5954C5.51653 20.9585 4.52386 21.5794 4.44345 21.5829C4.39926 21.5848 4.36426 21.6117 4.36568 21.6427C4.3671 21.6737 4.34005 21.7003 4.30558 21.7017C4.27111 21.7032 4.13602 21.7817 4.00539 21.8763C3.87476 21.9708 3.61296 22.1264 3.42363 22.2219C2.91337 22.4795 1.76129 23.1478 1.42858 23.3793C1.26867 23.4905 1.06419 23.602 0.974191 23.6271C0.606346 23.7296 0.987215 23.7815 2.15582 23.788C3.18312 23.7937 3.54484 23.7727 4.42357 23.6564C4.9986 23.5802 5.47931 23.5269 5.49182 23.538C5.53705 23.5779 4.24279 23.7935 3.58629 23.8554C2.89099 23.921 1.63405 23.9039 0.899599 23.8188L0.47864 23.7701L1.00225 23.4258C1.29024 23.2364 1.88528 22.8543 2.32457 22.5766C4.20834 21.3857 5.71279 20.318 6.53182 19.591C7.04462 19.1357 7.7305 18.2658 8.32155 17.3209C8.79046 16.5713 8.88373 16.4316 8.88267 16.4804C8.88242 16.4944 8.80385 16.6549 8.70819 16.8371ZM6.6944 19.6166C6.63939 19.649 6.46772 19.7941 6.31292 19.9391C6.05463 20.1809 6.04426 20.2007 6.18684 20.1798C6.35643 20.1548 6.60181 20.0265 6.47499 20.029C6.43277 20.0299 6.41376 20.0038 6.43274 19.9711C6.45173 19.9384 6.51173 19.9167 6.56609 19.923C6.63461 19.931 6.66117 19.8971 6.65272 19.8126C6.64459 19.7313 6.6676 19.6994 6.72171 19.7168C6.76993 19.7323 6.80119 19.7053 6.79867 19.6503C6.7954 19.5789 6.77152 19.5711 6.6944 19.6166ZM8.04679 22.2992C8.02178 22.3156 7.96198 22.3073 7.91388 22.2808C7.8456 22.2431 7.85532 22.2312 7.95821 22.2261C8.09367 22.2195 8.12677 22.2468 8.04679 22.2992ZM5.70776 23.503C5.63938 23.5032 5.6249 23.4904 5.67081 23.4705C5.71236 23.4524 5.76298 23.4522 5.7833 23.4702C5.80362 23.4881 5.76963 23.5028 5.70776 23.503Z" fill="#E8E8E8"/>
<path d="M8.08217 22.2264C9.1878 21.1482 11.4381 17.45 12.0249 15.7469C12.5383 14.2566 13.0215 11.289 12.8308 10.7979C12.7755 10.6557 12.866 9.53799 13.0318 8.31407C13.2662 6.58435 13.2672 6.06107 13.0365 5.96448C12.8064 5.86814 12.6715 6.01272 12.436 6.60767C12.269 7.02976 12.1774 7.49753 12.2325 7.64716C12.2875 7.7968 12.2427 8.16686 12.1329 8.46956C12.0231 8.77225 12.0041 9.20226 12.0907 9.42514C12.3054 9.97786 11.819 11.6932 11.2508 12.387C10.995 12.6994 10.772 13.1926 10.7552 13.4829C10.7123 14.2241 9.98861 15.2317 8.88703 16.0839C8.00742 16.7645 7.9514 16.7872 8.00764 16.4411C8.04069 16.2379 8.24519 15.8921 8.46209 15.6728C8.799 15.3322 8.81599 15.1463 8.57876 14.3969C8.24927 13.3559 8.15988 13.3617 7.10865 14.4925C6.68498 14.9482 6.27163 15.2728 6.19009 15.2137C6.10853 15.1546 6.09045 14.7603 6.14993 14.3375C6.2094 13.9147 6.2496 13.547 6.23928 13.5204C6.16291 13.3239 5.73772 13.7632 5.09391 14.7038C3.74823 16.6699 3.55822 17.0024 3.73699 17.0784C3.83367 17.1195 4.19032 16.7204 4.52954 16.1917C4.86876 15.6629 5.2714 15.1332 5.42429 15.0146C5.76547 14.7498 5.90401 15.0496 5.70743 15.6273C5.3687 16.6229 5.86514 16.4682 6.70291 15.3173C7.51102 14.2071 7.94088 13.9683 8.22831 14.4701C8.39441 14.76 8.28131 15.1397 7.7409 16.1062C7.35385 16.7984 6.97002 17.3877 6.88795 17.4157C6.80588 17.4438 6.76902 17.5447 6.80605 17.64C6.85169 17.7575 6.96849 17.7154 7.16885 17.5096C7.40372 17.268 7.4844 17.2575 7.56259 17.4588C7.67483 17.7477 7.22004 18.3434 6.60352 18.7151C6.37318 18.8539 5.80596 19.5421 5.34298 20.2443C3.83521 22.5314 0.70153 24.3695 0.300411 23.2022C0.231701 23.0022 0.253424 22.9186 0.348804 23.0163C0.534373 23.2067 2.61344 22.5815 3.10286 22.1882C3.34601 21.9928 3.3261 21.9595 2.89133 21.8339C2.10627 21.6071 1.82813 21.0304 2.07659 20.1445C2.19688 19.7156 2.26032 19.3766 2.21758 19.3912C2.04245 19.451 0.591428 21.1478 0.350138 21.5749C0.207114 21.8281 0.059622 22.3803 0.02238 22.8021C-0.0358934 23.462 0.00537148 23.5962 0.318227 23.7643C0.854219 24.0523 2.17322 24.0778 3.87998 23.833C6.07787 23.5179 7.1966 23.09 8.08217 22.2264ZM7.84758 17.5564C7.87906 17.2162 7.96134 17.1106 8.11061 17.2188C8.27879 17.3406 8.4166 17.2957 8.72097 17.0196C9.17386 16.6089 9.27758 16.7041 9.01551 17.29C8.9148 17.5152 8.60051 17.7786 8.31708 17.8754C7.8321 18.0412 7.80445 18.0224 7.84758 17.5564ZM4.8087 17.5594C5.27107 16.603 5.02556 16.6355 4.41741 17.6112C4.10839 18.1069 4.02057 18.3911 4.19419 18.3334C4.35158 18.2812 4.62813 17.9329 4.8087 17.5594ZM10.5674 13.0135C10.7892 12.402 10.8132 11.7393 10.6165 11.6559C10.5476 11.6266 10.3682 11.7255 10.2178 11.8756C9.60093 12.4909 9.08353 12.0466 9.52618 11.2816C9.79406 10.8187 10.048 9.48868 9.9277 9.17896C9.72379 8.65408 9.37345 9.43164 8.63006 12.059C8.37807 12.9496 8.54169 13.4374 9.03571 13.2686C9.23646 13.2 9.42895 13.2166 9.46346 13.3054C9.49797 13.3942 9.71489 13.4905 9.9455 13.5194C10.287 13.5622 10.4024 13.4682 10.5674 13.0135ZM8.25951 9.91844C8.28751 9.79764 8.25101 9.67358 8.17835 9.64276C8.00103 9.56752 7.72716 9.90045 7.80389 10.0979C7.887 10.3119 8.19655 10.1899 8.25951 9.91844ZM12.3482 5.46382C12.6197 4.88024 12.7327 3.32681 12.5106 3.23256C12.1515 3.08021 11.9095 3.62569 11.8925 4.62583C11.8705 5.91326 12.0153 6.17945 12.3482 5.46382ZM11.4604 4.95504C11.4644 4.80116 11.3824 4.65952 11.2781 4.64027C11.1738 4.62102 11.0852 4.73121 11.0812 4.88504C11.0772 5.0389 11.1592 5.18056 11.2634 5.19981C11.3677 5.21907 11.4564 5.10887 11.4604 4.95504ZM11.4518 2.84741C11.4989 2.75528 11.4926 2.56438 11.4378 2.4232C11.3646 2.23479 11.3033 2.23452 11.2074 2.42214C11.1355 2.56272 11.1418 2.75362 11.2214 2.84635C11.301 2.93907 11.4047 2.93955 11.4518 2.84741Z" fill="#E8E8E8"/>
<path d="M8.53422 21.5715C8.55969 21.0053 8.62942 20.8139 8.86846 20.6538C9.03459 20.5426 9.30809 20.3392 9.47624 20.2019C9.64439 20.0646 9.92952 19.9168 10.1099 19.8733C10.7159 19.7274 11.326 19.252 11.5101 18.7827C11.608 18.533 11.8424 18.1786 12.0309 17.9953C12.2195 17.812 12.5206 17.4654 12.7002 17.2252C13.1052 16.6835 13.2818 16.7305 12.9108 17.2812C12.7345 17.5428 12.6982 17.6891 12.8069 17.6996C13.0705 17.7254 13.0409 17.8588 12.7003 18.1788C12.3135 18.5423 12.3352 18.782 12.7365 18.5781C12.939 18.4752 13.0374 18.4797 13.0663 18.5933C13.108 18.7577 12.5329 19.2287 11.9718 19.4897C11.8026 19.5685 11.6524 19.7209 11.6382 19.8284C11.6017 20.1035 11.8992 20.0064 12.3105 19.609C12.499 19.4268 12.7404 19.257 12.847 19.2317C12.9536 19.2065 13.1369 19.0218 13.2545 18.8216C13.5107 18.3852 13.7273 18.3247 14.7957 18.3908C15.7364 18.4491 16.0478 18.3229 17.1894 17.4206L17.8856 16.8704L17.3146 16.7525C16.8039 16.6469 16.6852 16.6646 16.1882 16.9202C15.3328 17.36 14.837 17.1601 15.2872 16.5568C15.3942 16.4134 15.4661 16.2342 15.4469 16.1585C15.4276 16.0829 15.5284 15.9595 15.6706 15.8844C16.5685 15.4105 17.8901 15.5754 18.602 16.2502C19.1118 16.7336 19.2365 16.7464 20.5922 16.4543C21.4377 16.2722 21.7048 16.1684 21.8932 15.9486C22.0671 15.7457 22.198 15.6888 22.3845 15.7349C23.0142 15.8909 23.4327 15.638 24.0379 14.7357C24.3588 14.2572 24.6657 13.6625 24.7199 13.4143C24.8732 12.7123 25.0627 12.0922 25.2049 11.8276C25.3655 11.5288 25.3245 10.647 25.1519 10.6876C25.0845 10.7035 24.9187 10.9967 24.7836 11.3391C24.6485 11.6816 24.4665 11.9786 24.3791 11.9992C24.2201 12.0366 24.0564 12.5811 24.1234 12.8498C24.1665 13.0239 23.7479 13.8935 23.7005 13.7279C23.6822 13.6632 23.7343 13.4285 23.8168 13.2063C23.9621 12.8148 23.9119 12.6112 23.6834 12.665C23.6223 12.6793 23.5669 12.9157 23.5602 13.1903C23.5459 13.7808 23.2024 14.5034 22.8018 14.7859C22.2953 15.1431 20.9902 15.4223 20.3215 15.3164L19.7145 15.2203L20.1598 14.7984C20.4047 14.5664 20.5574 14.3314 20.4992 14.2762C20.4338 14.2142 20.3326 14.2613 20.2348 14.3991C20.0334 14.6826 19.3661 14.8253 19.5024 14.5556C19.6477 14.2681 19.4705 14.2626 19.1358 14.5441C18.8613 14.7752 18.8006 14.7879 18.5628 14.664C18.3357 14.5457 18.0926 14.5865 16.9014 14.9427C15.7282 15.2936 15.5098 15.3311 15.5301 15.178C15.5485 15.0392 15.4606 15.0289 15.1601 15.1346L14.766 15.2733L15.137 14.9373C15.3411 14.7524 15.6162 14.5073 15.7484 14.3925C16.041 14.1385 16.0208 13.9655 15.7073 14.0393C15.5802 14.0692 15.4274 14.2238 15.3678 14.3829C15.3081 14.542 15.0659 14.7917 14.8294 14.9379C14.4641 15.1638 14.3256 15.1925 13.9071 15.129C12.9056 14.9772 11.8762 15.6118 10.8503 17.0133C10.4751 17.5258 10.1055 17.8879 9.83889 18.0041C9.53133 18.1382 9.24873 18.4568 8.78445 19.1929C8.11239 20.2585 8.11364 20.2541 8.16494 21.3818C8.21101 22.3944 8.49075 22.5381 8.53422 21.5715ZM16.2518 17.0967C16.5862 16.8049 17.3696 16.7006 17.084 16.9859C17.0012 17.0686 16.7117 17.1871 16.4406 17.2491L15.9477 17.3618L16.2518 17.0967ZM13.3123 16.994C13.2965 16.932 13.5956 16.6018 13.9768 16.2601C14.5257 15.7682 14.7136 15.6593 14.8793 15.737C15.1496 15.8637 15.1063 16.1892 14.8097 16.2589C14.6833 16.2887 14.4256 16.4621 14.237 16.6443C13.878 16.9912 13.3612 17.1866 13.3123 16.994ZM7.81844 20.3933C7.70785 19.6581 7.51815 19.2444 7.42 19.5246C7.33545 19.7659 7.62987 20.9271 7.78821 20.9765C7.85633 20.9979 7.86989 20.7354 7.81844 20.3933ZM8.10199 19.1497C8.18158 18.7466 8.17362 18.6989 8.03239 18.7321C7.93491 18.755 7.90366 19.4066 7.99735 19.4627C8.01842 19.4753 8.06551 19.3344 8.10199 19.1497ZM7.61179 18.7452C7.65338 18.4876 7.60822 18.191 7.49292 17.9645L7.30697 17.5993L7.22419 17.9253C7.17192 18.1311 7.21574 18.4189 7.34305 18.706L7.54471 19.1606L7.61179 18.7452ZM7.01445 18.9716C6.97312 18.8087 6.92827 18.7486 6.91483 18.8381C6.90137 18.9276 6.93517 19.0608 6.98997 19.1342C7.04477 19.2076 7.05579 19.1344 7.01445 18.9716ZM25.3938 13.2861C25.4875 13.0595 25.5494 12.8158 25.5313 12.7444C25.4783 12.5354 25.2459 12.6536 25.2306 12.8973C25.2229 13.0199 25.1864 13.2317 25.1495 13.3679C25.0371 13.7831 25.2124 13.7244 25.3938 13.2861ZM23.1567 13.9186C23.182 13.8437 23.1441 13.7961 23.0724 13.8129C23.0008 13.8298 22.9557 13.8969 22.9722 13.9621C22.9887 14.0272 23.0267 14.0748 23.0565 14.0678C23.0864 14.0607 23.1314 13.9936 23.1567 13.9186ZM7.31976 17.2679C7.26142 17.2125 7.18925 17.173 7.15941 17.1801C7.12957 17.1871 7.11869 17.2461 7.13522 17.3113C7.15176 17.3764 7.2239 17.4159 7.29556 17.3991C7.36722 17.3822 7.37811 17.3232 7.31976 17.2679ZM16.5785 14.1534C16.9185 13.6828 16.9285 13.6364 16.6784 13.6906C16.5254 13.7237 16.4138 13.8041 16.4304 13.8692C16.4469 13.9344 16.3733 14.1259 16.2668 14.2948C15.9381 14.8159 16.1787 14.7068 16.5785 14.1534ZM14.6766 14.4073C14.7019 14.3323 14.6639 14.2848 14.5923 14.3016C14.5206 14.3185 14.4755 14.3856 14.4921 14.4507C14.5086 14.5159 14.5465 14.5635 14.5764 14.5564C14.6062 14.5494 14.6513 14.4823 14.6766 14.4073ZM23.3749 12.2523C23.407 12.1573 23.3919 12.0553 23.3413 12.0258C23.2043 11.9457 23.1239 12.1298 23.2269 12.2876C23.2991 12.3982 23.328 12.3912 23.3749 12.2523ZM24.3576 11.544C24.3917 11.4899 24.4056 11.3906 24.3885 11.3233C24.3697 11.2491 24.3142 11.2696 24.2475 11.3753C24.1869 11.4713 24.173 11.5706 24.2165 11.596C24.26 11.6215 24.3235 11.5979 24.3576 11.544ZM25.948 10.8227C26.062 10.6284 26.1155 10.4085 26.0668 10.334C26.0147 10.2543 25.9017 10.3835 25.7923 10.6479C25.5653 11.1966 25.6636 11.307 25.948 10.8227ZM16.7421 13.0427C16.7256 12.9775 16.6567 12.9373 16.589 12.9532C16.5214 12.9691 16.4795 13.0354 16.4961 13.1006C16.5126 13.1657 16.5815 13.206 16.6491 13.1901C16.7168 13.1742 16.7586 13.1078 16.7421 13.0427Z" fill="#E8E8E8"/>
<path d="M3.91691 11.0354C4.23284 10.4842 4.66941 9.77389 4.88706 9.45693C5.10471 9.13997 5.25121 8.79937 5.21261 8.70003C5.17402 8.6007 5.01981 8.72384 4.86996 8.97376C4.72009 9.22365 4.62083 9.31378 4.64939 9.17405C4.67795 9.03432 4.6708 8.73811 4.63351 8.5158C4.59622 8.2935 4.6412 8.00049 4.73346 7.86467C4.93741 7.56443 5.20378 6.54195 5.1247 6.3629C5.09316 6.29179 4.98097 6.43381 4.87513 6.67854C4.7693 6.92329 4.5289 7.38741 4.34092 7.70992C4.0404 8.22552 3.99818 8.2514 3.99117 7.92425C3.98649 7.70558 3.82202 7.91992 3.59223 8.44428C3.35054 8.99575 3.26687 9.51284 3.37307 9.79856C3.47937 10.0842 3.39717 10.5918 3.15806 11.1275C2.9453 11.6043 2.78963 12.0417 2.81213 12.0996C2.92563 12.3918 3.40306 11.9318 3.91691 11.0354ZM5.36769 10.4295C6.24505 9.19944 7.66876 6.50796 7.57276 6.26087C7.41721 5.86048 6.95914 6.27573 6.70291 7.04944C6.38929 7.9964 5.29433 10.1538 4.73006 10.9366C4.51116 11.2403 4.41451 11.4615 4.51529 11.4282C4.61618 11.3952 4.99964 10.9455 5.36769 10.4295ZM9.00571 7.32721C9.26671 6.60775 9.1815 6.367 8.80351 6.75588C8.54054 7.02642 8.32872 7.6745 8.42352 7.9185C8.51497 8.1539 8.81714 7.84699 9.00571 7.32721ZM5.8282 7.71466C6.08595 7.16733 6.04437 6.75306 5.74207 6.85637C5.55047 6.92184 5.31724 8.12434 5.48253 8.19447C5.53745 8.21777 5.69297 8.00184 5.8282 7.71466Z" fill="#E8E8E8"/>
</svg>
