<svg width="1218" height="184" viewBox="0 0 1218 184" fill="none" xmlns="http://www.w3.org/2000/svg">
<path fill-rule="evenodd" clip-rule="evenodd" d="M0 36.4422L19.4488 57.4521C38.8977 78.462 77.7954 120.482 116.693 124.391C155.591 127.811 194.488 92.6314 233.386 96.0516C272.284 99.4719 311.181 141.98 350.079 138.071C388.977 134.651 427.874 85.3024 466.772 60.8723C505.67 36.4422 544.568 36.4422 583.465 57.4521C621.552 78.462 660.45 120.482 699.348 141.98C738.246 162.99 777.143 162.99 816.041 134.651C854.939 106.801 893.836 50.1231 932.734 22.2727C971.632 -6.06618 1010.53 -6.06618 1049.43 14.9437C1088.32 36.4422 1127.22 78.462 1146.67 99.4719L1218 184H1166.12H1146.67C1127.22 184 1088.32 184 1049.43 184C1010.53 184 971.632 184 932.734 184C893.836 184 854.939 184 816.041 184C777.143 184 738.246 184 699.348 184C660.45 184 621.552 184 583.465 184C544.568 184 505.67 184 466.772 184C427.874 184 388.977 184 350.079 184C311.181 184 272.284 184 233.386 184C194.488 184 155.591 184 116.693 184C77.7954 184 38.8977 184 19.4488 184H0L0 36.4422Z" fill="#E8E8E8"/>
</svg>
